<?xml version="1.0" encoding="utf-8"?>
<!-- Generator: Adobe Illustrator 21.1.0, SVG Export Plug-In . SVG Version: 6.00 Build 0)  -->
<svg version="1.1" id="Layer_1" xmlns="http://www.w3.org/2000/svg" xmlns:xlink="http://www.w3.org/1999/xlink" x="0px" y="0px"
	 width="1366px" height="768px" viewBox="0 0 1366 768" style="enable-background:new 0 0 1366 768;" xml:space="preserve">
<style type="text/css">
	.st0{display:none;}
	.st1{display:inline;}
	.st2{fill:#E6E6E6;}
	.st3{fill:#F1E8F7;}
	.st4{fill:none;stroke:#3E1A65;stroke-width:1.5;stroke-miterlimit:10;}
	.st5{fill:none;stroke:#F1E8F7;stroke-miterlimit:10;}
	.st6{fill:none;stroke:#8941BB;stroke-width:2;stroke-linecap:round;stroke-linejoin:round;stroke-miterlimit:10;}
	.st7{fill:none;stroke:#3E1A65;stroke-width:2;stroke-linecap:round;stroke-linejoin:round;stroke-miterlimit:10;}
	.st8{fill:none;stroke:#00AFBE;stroke-width:2;stroke-linecap:round;stroke-linejoin:round;stroke-miterlimit:10;}
	.st9{fill:#FFFFFF;stroke:#8941BB;stroke-linecap:round;stroke-linejoin:round;stroke-miterlimit:10;}
	.st10{fill:#8941BB;}
	.st11{fill:#3E1A65;}
	.st12{fill:#453E4B;}
	.st13{fill:#786D81;}
	.st14{fill:#FFFFFF;}
	.st15{fill:#07C3B8;}
	.st16{fill:#00AFBE;}
	.st17{fill:none;stroke:#3E1A65;stroke-linecap:round;stroke-linejoin:round;stroke-miterlimit:10;}
	.st18{fill:none;stroke:#8941BB;stroke-linecap:round;stroke-linejoin:round;stroke-miterlimit:10;}
	.st19{fill:none;stroke:#00AFBE;stroke-linecap:round;stroke-linejoin:round;stroke-miterlimit:10;}
	.st20{fill:none;stroke:#8941BB;stroke-width:2;stroke-linejoin:round;stroke-miterlimit:10;}
	.st21{fill:none;stroke:#FFFFFF;stroke-width:2;stroke-linecap:round;stroke-linejoin:round;stroke-miterlimit:10;}
	.st22{fill:none;stroke:#D0B3E4;stroke-width:2;stroke-linecap:round;stroke-linejoin:round;stroke-miterlimit:10;}
	.st23{fill:none;stroke:#8941BB;stroke-linejoin:round;stroke-miterlimit:10;}
	.st24{fill:none;stroke:#FFFFFF;stroke-linecap:round;stroke-linejoin:round;stroke-miterlimit:10;}
	.st25{fill:none;stroke:#D0B3E4;stroke-linecap:round;stroke-linejoin:round;stroke-miterlimit:10;}
	.st26{fill:#D0B3E4;}
	.st27{fill:none;stroke:#3E1A65;stroke-width:2;stroke-miterlimit:10;}
	.st28{fill:none;stroke:#3E1A65;stroke-miterlimit:10;}
	.st29{fill:none;stroke:#FFFFFF;stroke-miterlimit:10;}
	.st30{fill:none;stroke:#D0B3E4;stroke-miterlimit:10;}
</style>
<g class="st0">
	<g class="st1">
		<g>
			<rect y="48" class="st2" width="64" height="64"/>
		</g>
		<g>
			<rect x="64" y="48" class="st3" width="64" height="64"/>
		</g>
		<g>
			<g>
				<rect x="128" y="48" class="st2" width="64" height="64"/>
			</g>
			<g>
				<rect x="192" y="48" class="st3" width="64" height="64"/>
			</g>
		</g>
		<g>
			<g>
				<rect x="256" y="48" class="st2" width="64" height="64"/>
			</g>
			<g>
				<rect x="320" y="48" class="st3" width="64" height="64"/>
			</g>
		</g>
		<g>
			<g>
				<rect x="384" y="48" class="st2" width="64" height="64"/>
			</g>
			<g>
				<rect x="448" y="48" class="st3" width="64" height="64"/>
			</g>
		</g>
		<g>
			<g>
				<rect x="512" y="48" class="st2" width="64" height="64"/>
			</g>
			<g>
				<rect x="576" y="48" class="st3" width="64" height="64"/>
			</g>
		</g>
		<g>
			<g>
				<rect x="640" y="48" class="st2" width="64" height="64"/>
			</g>
			<g>
				<rect x="704" y="48" class="st3" width="64" height="64"/>
			</g>
		</g>
		<g>
			<g>
				<rect x="768" y="48" class="st2" width="64" height="64"/>
			</g>
			<g>
				<rect x="832" y="48" class="st3" width="64" height="64"/>
			</g>
		</g>
		<g>
			<g>
				<rect x="896" y="48" class="st2" width="64" height="64"/>
			</g>
			<g>
				<rect x="960" y="48" class="st3" width="64" height="64"/>
			</g>
		</g>
		<g>
			<g>
				<rect x="1024" y="48" class="st2" width="64" height="64"/>
			</g>
			<g>
				<rect x="1088" y="48" class="st3" width="64" height="64"/>
			</g>
		</g>
		<g>
			<g>
				<rect x="1152" y="48" class="st2" width="64" height="64"/>
			</g>
			<g>
				<rect x="1216" y="48" class="st3" width="64" height="64"/>
			</g>
		</g>
		<g>
			<g>
				<rect x="1280" y="48" class="st2" width="64" height="64"/>
			</g>
		</g>
		<g>
			<rect y="112" class="st3" width="64" height="64"/>
		</g>
		<g>
			<g>
				<rect x="64" y="112" class="st2" width="64" height="64"/>
			</g>
			<g>
				<rect x="128" y="112" class="st3" width="64" height="64"/>
			</g>
		</g>
		<g>
			<g>
				<rect x="192" y="112" class="st2" width="64" height="64"/>
			</g>
			<g>
				<rect x="256" y="112" class="st3" width="64" height="64"/>
			</g>
		</g>
		<g>
			<g>
				<rect x="320" y="112" class="st2" width="64" height="64"/>
			</g>
			<g>
				<rect x="384" y="112" class="st3" width="64" height="64"/>
			</g>
		</g>
		<g>
			<g>
				<rect x="448" y="112" class="st2" width="64" height="64"/>
			</g>
			<g>
				<rect x="512" y="112" class="st3" width="64" height="64"/>
			</g>
		</g>
		<g>
			<g>
				<rect x="576" y="112" class="st2" width="64" height="64"/>
			</g>
			<g>
				<rect x="640" y="112" class="st3" width="64" height="64"/>
			</g>
		</g>
		<g>
			<g>
				<rect x="704" y="112" class="st2" width="64" height="64"/>
			</g>
			<g>
				<rect x="768" y="112" class="st3" width="64" height="64"/>
			</g>
		</g>
		<g>
			<g>
				<rect x="832" y="112" class="st2" width="64" height="64"/>
			</g>
			<g>
				<rect x="896" y="112" class="st3" width="64" height="64"/>
			</g>
		</g>
		<g>
			<g>
				<rect x="960" y="112" class="st2" width="64" height="64"/>
			</g>
			<g>
				<rect x="1024" y="112" class="st3" width="64" height="64"/>
			</g>
		</g>
		<g>
			<g>
				<rect x="1088" y="112" class="st2" width="64" height="64"/>
			</g>
			<g>
				<rect x="1152" y="112" class="st3" width="64" height="64"/>
			</g>
		</g>
		<g>
			<g>
				<rect x="1216" y="112" class="st2" width="64" height="64"/>
			</g>
		</g>
	</g>
	<g class="st1">
		<g>
			<g>
				<rect class="st2" width="24" height="24"/>
			</g>
			<g>
				<rect x="24" class="st3" width="24" height="24"/>
			</g>
			<g>
				<rect y="24" class="st3" width="24" height="24"/>
			</g>
			<g>
				<rect x="48" class="st2" width="24" height="24"/>
			</g>
			<g>
				<rect x="72" class="st3" width="24" height="24"/>
			</g>
			<g>
				<rect x="96" class="st2" width="24" height="24"/>
			</g>
			<g>
				<rect x="120" class="st3" width="24" height="24"/>
			</g>
			<g>
				<rect x="144" class="st2" width="24" height="24"/>
			</g>
			<g>
				<rect x="168" class="st3" width="24" height="24"/>
			</g>
			<g>
				<rect x="24" y="24" class="st2" width="24" height="24"/>
			</g>
			<g>
				<rect x="48" y="24" class="st3" width="24" height="24"/>
			</g>
			<g>
				<rect x="72" y="24" class="st2" width="24" height="24"/>
			</g>
			<g>
				<rect x="96" y="24" class="st3" width="24" height="24"/>
			</g>
			<g>
				<rect x="120" y="24" class="st2" width="24" height="24"/>
			</g>
			<g>
				<rect x="144" y="24" class="st3" width="24" height="24"/>
			</g>
			<g>
				<rect x="168" y="24" class="st2" width="24" height="24"/>
			</g>
			<g>
				<rect x="192" y="24" class="st3" width="24" height="24"/>
			</g>
			<g>
				<rect x="192" class="st2" width="24" height="24"/>
			</g>
			<g>
				<rect x="216" class="st3" width="24" height="24"/>
			</g>
			<g>
				<rect x="240" class="st2" width="24" height="24"/>
			</g>
			<g>
				<rect x="264" class="st3" width="24" height="24"/>
			</g>
			<g>
				<rect x="288" class="st2" width="24" height="24"/>
			</g>
			<g>
				<rect x="312" class="st3" width="24" height="24"/>
			</g>
			<g>
				<rect x="336" class="st2" width="24" height="24"/>
			</g>
			<g>
				<rect x="360" class="st3" width="24" height="24"/>
			</g>
			<g>
				<rect x="216" y="24" class="st2" width="24" height="24"/>
			</g>
			<g>
				<rect x="240" y="24" class="st3" width="24" height="24"/>
			</g>
			<g>
				<rect x="264" y="24" class="st2" width="24" height="24"/>
			</g>
			<g>
				<rect x="288" y="24" class="st3" width="24" height="24"/>
			</g>
			<g>
				<rect x="312" y="24" class="st2" width="24" height="24"/>
			</g>
			<g>
				<rect x="336" y="24" class="st3" width="24" height="24"/>
			</g>
			<g>
				<rect x="360" y="24" class="st2" width="24" height="24"/>
			</g>
			<g>
				<rect x="384" y="24" class="st3" width="24" height="24"/>
			</g>
		</g>
		<g>
			<g>
				<rect x="384" class="st2" width="24" height="24"/>
			</g>
			<g>
				<rect x="408" class="st3" width="24" height="24"/>
			</g>
			<g>
				<rect x="432" class="st2" width="24" height="24"/>
			</g>
			<g>
				<rect x="456" class="st3" width="24" height="24"/>
			</g>
			<g>
				<rect x="480" class="st2" width="24" height="24"/>
			</g>
			<g>
				<rect x="504" class="st3" width="24" height="24"/>
			</g>
			<g>
				<rect x="528" class="st2" width="24" height="24"/>
			</g>
			<g>
				<rect x="552" class="st3" width="24" height="24"/>
			</g>
			<g>
				<rect x="408" y="24" class="st2" width="24" height="24"/>
			</g>
			<g>
				<rect x="432" y="24" class="st3" width="24" height="24"/>
			</g>
			<g>
				<rect x="456" y="24" class="st2" width="24" height="24"/>
			</g>
			<g>
				<rect x="480" y="24" class="st3" width="24" height="24"/>
			</g>
			<g>
				<rect x="504" y="24" class="st2" width="24" height="24"/>
			</g>
			<g>
				<rect x="528" y="24" class="st3" width="24" height="24"/>
			</g>
			<g>
				<rect x="552" y="24" class="st2" width="24" height="24"/>
			</g>
			<g>
				<rect x="576" y="24" class="st3" width="24" height="24"/>
			</g>
			<g>
				<rect x="576" class="st2" width="24" height="24"/>
			</g>
			<g>
				<rect x="600" class="st3" width="24" height="24"/>
			</g>
			<g>
				<rect x="624" class="st2" width="24" height="24"/>
			</g>
			<g>
				<rect x="648" class="st3" width="24" height="24"/>
			</g>
			<g>
				<rect x="672" class="st2" width="24" height="24"/>
			</g>
			<g>
				<rect x="696" class="st3" width="24" height="24"/>
			</g>
			<g>
				<rect x="720" class="st2" width="24" height="24"/>
			</g>
			<g>
				<rect x="744" class="st3" width="24" height="24"/>
			</g>
			<g>
				<rect x="600" y="24" class="st2" width="24" height="24"/>
			</g>
			<g>
				<rect x="624" y="24" class="st3" width="24" height="24"/>
			</g>
			<g>
				<rect x="648" y="24" class="st2" width="24" height="24"/>
			</g>
			<g>
				<rect x="672" y="24" class="st3" width="24" height="24"/>
			</g>
			<g>
				<rect x="696" y="24" class="st2" width="24" height="24"/>
			</g>
			<g>
				<rect x="720" y="24" class="st3" width="24" height="24"/>
			</g>
			<g>
				<rect x="744" y="24" class="st2" width="24" height="24"/>
			</g>
			<g>
				<rect x="768" y="24" class="st3" width="24" height="24"/>
			</g>
		</g>
		<g>
			<g>
				<rect x="768" class="st2" width="24" height="24"/>
			</g>
			<g>
				<rect x="792" class="st3" width="24" height="24"/>
			</g>
			<g>
				<rect x="816" class="st2" width="24" height="24"/>
			</g>
			<g>
				<rect x="840" class="st3" width="24" height="24"/>
			</g>
			<g>
				<rect x="864" class="st2" width="24" height="24"/>
			</g>
			<g>
				<rect x="888" class="st3" width="24" height="24"/>
			</g>
			<g>
				<rect x="912" class="st2" width="24" height="24"/>
			</g>
			<g>
				<rect x="936" class="st3" width="24" height="24"/>
			</g>
			<g>
				<rect x="792" y="24" class="st2" width="24" height="24"/>
			</g>
			<g>
				<rect x="816" y="24" class="st3" width="24" height="24"/>
			</g>
			<g>
				<rect x="840" y="24" class="st2" width="24" height="24"/>
			</g>
			<g>
				<rect x="864" y="24" class="st3" width="24" height="24"/>
			</g>
			<g>
				<rect x="888" y="24" class="st2" width="24" height="24"/>
			</g>
			<g>
				<rect x="912" y="24" class="st3" width="24" height="24"/>
			</g>
			<g>
				<rect x="936" y="24" class="st2" width="24" height="24"/>
			</g>
			<g>
				<rect x="960" y="24" class="st3" width="24" height="24"/>
			</g>
			<g>
				<rect x="960" class="st2" width="24" height="24"/>
			</g>
			<g>
				<rect x="984" class="st3" width="24" height="24"/>
			</g>
			<g>
				<rect x="1008" class="st2" width="24" height="24"/>
			</g>
			<g>
				<rect x="1032" class="st3" width="24" height="24"/>
			</g>
			<g>
				<rect x="1056" class="st2" width="24" height="24"/>
			</g>
			<g>
				<rect x="1080" class="st3" width="24" height="24"/>
			</g>
			<g>
				<rect x="1104" class="st2" width="24" height="24"/>
			</g>
			<g>
				<rect x="1128" class="st3" width="24" height="24"/>
			</g>
			<g>
				<rect x="984" y="24" class="st2" width="24" height="24"/>
			</g>
			<g>
				<rect x="1008" y="24" class="st3" width="24" height="24"/>
			</g>
			<g>
				<rect x="1032" y="24" class="st2" width="24" height="24"/>
			</g>
			<g>
				<rect x="1056" y="24" class="st3" width="24" height="24"/>
			</g>
			<g>
				<rect x="1080" y="24" class="st2" width="24" height="24"/>
			</g>
			<g>
				<rect x="1104" y="24" class="st3" width="24" height="24"/>
			</g>
			<g>
				<rect x="1128" y="24" class="st2" width="24" height="24"/>
			</g>
			<g>
				<rect x="1152" y="24" class="st3" width="24" height="24"/>
			</g>
		</g>
	</g>
	<g class="st1">
		<g>
			<g>
				<rect y="176" class="st3" width="48" height="48"/>
			</g>
			<g>
				<rect x="48" y="176" class="st2" width="48" height="48"/>
			</g>
			<g>
				<rect y="224" class="st2" width="48" height="48"/>
			</g>
			<g>
				<rect x="48" y="224" class="st3" width="48" height="48"/>
			</g>
		</g>
		<g>
			<g>
				<rect x="96" y="176" class="st3" width="48" height="48"/>
			</g>
			<g>
				<rect x="144" y="176" class="st2" width="48" height="48"/>
			</g>
			<g>
				<rect x="96" y="224" class="st2" width="48" height="48"/>
			</g>
			<g>
				<rect x="144" y="224" class="st3" width="48" height="48"/>
			</g>
		</g>
		<g>
			<g>
				<rect x="192" y="176" class="st3" width="48" height="48"/>
			</g>
			<g>
				<rect x="240" y="176" class="st2" width="48" height="48"/>
			</g>
			<g>
				<rect x="192" y="224" class="st2" width="48" height="48"/>
			</g>
			<g>
				<rect x="240" y="224" class="st3" width="48" height="48"/>
			</g>
		</g>
		<g>
			<g>
				<rect x="288" y="176" class="st3" width="48" height="48"/>
			</g>
			<g>
				<rect x="336" y="176" class="st2" width="48" height="48"/>
			</g>
			<g>
				<rect x="288" y="224" class="st2" width="48" height="48"/>
			</g>
			<g>
				<rect x="336" y="224" class="st3" width="48" height="48"/>
			</g>
		</g>
		<g>
			<g>
				<rect x="384" y="176" class="st3" width="48" height="48"/>
			</g>
			<g>
				<rect x="432" y="176" class="st2" width="48" height="48"/>
			</g>
			<g>
				<rect x="384" y="224" class="st2" width="48" height="48"/>
			</g>
			<g>
				<rect x="432" y="224" class="st3" width="48" height="48"/>
			</g>
		</g>
		<g>
			<g>
				<rect x="480" y="176" class="st3" width="48" height="48"/>
			</g>
			<g>
				<rect x="528" y="176" class="st2" width="48" height="48"/>
			</g>
			<g>
				<rect x="480" y="224" class="st2" width="48" height="48"/>
			</g>
			<g>
				<rect x="528" y="224" class="st3" width="48" height="48"/>
			</g>
		</g>
	</g>
	<g class="st1">
		<g>
			<g>
				<rect y="272" class="st3" width="32" height="32"/>
			</g>
			<g>
				<rect x="32" y="304" class="st3" width="32" height="32"/>
			</g>
			<g>
				<rect x="32" y="272" class="st2" width="32" height="32"/>
			</g>
			<g>
				<rect y="304" class="st2" width="32" height="32"/>
			</g>
			<g>
				<rect x="64" y="272" class="st3" width="32" height="32"/>
			</g>
			<g>
				<rect x="96" y="304" class="st3" width="32" height="32"/>
			</g>
			<g>
				<rect x="96" y="272" class="st2" width="32" height="32"/>
			</g>
			<g>
				<rect x="64" y="304" class="st2" width="32" height="32"/>
			</g>
			<g>
				<rect x="128" y="272" class="st3" width="32" height="32"/>
			</g>
			<g>
				<rect x="160" y="304" class="st3" width="32" height="32"/>
			</g>
			<g>
				<rect x="160" y="272" class="st2" width="32" height="32"/>
			</g>
			<g>
				<rect x="128" y="304" class="st2" width="32" height="32"/>
			</g>
		</g>
		<g>
			<g>
				<rect x="192" y="272" class="st3" width="32" height="32"/>
			</g>
			<g>
				<rect x="224" y="304" class="st3" width="32" height="32"/>
			</g>
			<g>
				<rect x="224" y="272" class="st2" width="32" height="32"/>
			</g>
			<g>
				<rect x="192" y="304" class="st2" width="32" height="32"/>
			</g>
			<g>
				<rect x="256" y="272" class="st3" width="32" height="32"/>
			</g>
			<g>
				<rect x="288" y="304" class="st3" width="32" height="32"/>
			</g>
			<g>
				<rect x="288" y="272" class="st2" width="32" height="32"/>
			</g>
			<g>
				<rect x="256" y="304" class="st2" width="32" height="32"/>
			</g>
			<g>
				<rect x="320" y="272" class="st3" width="32" height="32"/>
			</g>
			<g>
				<rect x="352" y="304" class="st3" width="32" height="32"/>
			</g>
			<g>
				<rect x="352" y="272" class="st2" width="32" height="32"/>
			</g>
			<g>
				<rect x="320" y="304" class="st2" width="32" height="32"/>
			</g>
		</g>
	</g>
</g>
<g>
	<ellipse class="st4" cx="11.1" cy="10.1" rx="7.1" ry="7.1"/>
	<rect x="17.6" y="14.6" transform="matrix(0.7073 -0.7069 0.7069 0.7073 -7.5161 18.1359)" class="st4" width="1" height="7.1"/>
</g>
<polygon class="st3" points="27,92 27,68 43,80 "/>
<circle class="st5" cx="32" cy="80" r="29.5"/>
<circle class="st6" cx="736" cy="80" r="29.5"/>
<g>
	<line class="st7" x1="482" y1="92" x2="482" y2="104"/>
	<line class="st7" x1="504" y1="56" x2="504" y2="103"/>
	<line class="st6" x1="452" y1="56" x2="509" y2="56"/>
	<line class="st6" x1="452" y1="104" x2="509" y2="104"/>
	<line class="st7" x1="458" y1="57" x2="458" y2="103"/>
	<path class="st8" d="M482,87.2c-3.9,0-7-3.1-7-6.8v-9.2c0-3.8,3.1-6.8,7-6.8c3.9,0,7,3.1,7,6.8v9.2C489,84.1,485.9,87.2,482,87.2z"
		/>
	<path class="st6" d="M492,80.2c0,5.6-4.5,10.2-10.1,10.2c-5.6,0-10.1-4.6-10.1-10.2"/>
</g>
<circle class="st9" cx="96" cy="80" r="29.5"/>
<rect x="109" y="482" class="st10" width="45" height="25"/>
<rect x="163" y="482" class="st11" width="45" height="25"/>
<rect x="217" y="482" class="st12" width="45" height="25"/>
<rect x="270" y="482" class="st12" width="45" height="25"/>
<rect x="324" y="482" class="st13" width="45" height="25"/>
<g>
	<rect x="379" y="482" class="st3" width="45" height="25"/>
</g>
<polygon class="st10" points="92.5,69.2 91.1,70.6 100.5,80 91.1,89.4 92.5,90.8 102.9,80 "/>
<circle class="st11" cx="96" cy="144" r="29.5"/>
<polygon class="st14" points="92.5,133.2 91.1,134.6 100.5,144 91.1,153.4 92.5,154.8 102.9,144 "/>
<circle class="st9" cx="160" cy="80" r="29.5"/>
<polygon class="st10" points="163.5,69.2 164.9,70.6 155.5,80 164.9,89.4 163.5,90.8 153.1,80 "/>
<circle class="st11" cx="160" cy="144" r="29.5"/>
<polygon class="st14" points="163.5,133.2 164.9,134.6 155.5,144 164.9,153.4 163.5,154.8 153.1,144 "/>
<polygon class="st13" points="44,5.5 42.5,4 36,10.5 29.5,4 28,5.5 34.5,12 28,18.5 29.5,20 36,13.5 42.5,20 44,18.5 37.5,12 "/>
<polygon class="st11" points="44,29.5 42.5,28 36,34.5 29.5,28 28,29.5 34.5,36 28,42.5 29.5,44 36,37.5 42.5,44 44,42.5 37.5,36 
	"/>
<polygon class="st14" points="20,29.5 18.5,28 12,34.5 5.5,28 4,29.5 10.5,36 4,42.5 5.5,44 12,37.5 18.5,44 20,42.5 13.5,36 "/>
<g>
	<path class="st10" d="M115.9,4.1c-1.5-1.5-3.8-1.5-5.3,0l-3.3,3.3c-0.2,0.2-0.2,0.6,0,0.8c0.2,0.2,0.6,0.2,0.8,0l3.3-3.3
		c1-1,2.6-1,3.7,0c1,1,1,2.7,0,3.7l-4.3,4.3c-0.5,0.5-1.1,0.8-1.8,0.8c-0.7,0-1.3-0.3-1.8-0.8c-0.2-0.2-0.6-0.2-0.8,0
		c-0.2,0.2-0.2,0.6,0,0.8c0.7,0.7,1.6,1.1,2.6,1.1c1,0,1.9-0.4,2.6-1.1l4.3-4.3C117.4,7.9,117.4,5.5,115.9,4.1L115.9,4.1z
		 M115.9,4.1"/>
	<path class="st10" d="M107.7,15.9l-3.2,3.2c-0.5,0.5-1.1,0.8-1.8,0.8c-0.7,0-1.3-0.3-1.8-0.8c-1-1-1-2.7,0-3.7l4.3-4.3
		c1-1,2.6-1,3.7,0c0.2,0.2,0.6,0.2,0.8,0c0.2-0.2,0.2-0.6,0-0.8c-1.4-1.5-3.8-1.5-5.3,0l-4.3,4.3c-1.5,1.5-1.5,3.8,0,5.3
		c0.7,0.7,1.6,1.1,2.6,1.1c1,0,1.9-0.4,2.6-1.1l3.2-3.2c0.2-0.2,0.2-0.6,0-0.8C108.3,15.7,107.9,15.7,107.7,15.9L107.7,15.9z
		 M107.7,15.9"/>
</g>
<g>
	<path class="st14" d="M139.9,4.1c-1.5-1.5-3.8-1.5-5.3,0l-3.3,3.3c-0.2,0.2-0.2,0.6,0,0.8c0.2,0.2,0.6,0.2,0.8,0l3.3-3.3
		c1-1,2.6-1,3.7,0c1,1,1,2.7,0,3.7l-4.3,4.3c-0.5,0.5-1.1,0.8-1.8,0.8c-0.7,0-1.3-0.3-1.8-0.8c-0.2-0.2-0.6-0.2-0.8,0
		c-0.2,0.2-0.2,0.6,0,0.8c0.7,0.7,1.6,1.1,2.6,1.1c1,0,1.9-0.4,2.6-1.1l4.3-4.3C141.4,7.9,141.4,5.5,139.9,4.1L139.9,4.1z
		 M139.9,4.1"/>
	<path class="st14" d="M131.7,15.9l-3.2,3.2c-0.5,0.5-1.1,0.8-1.8,0.8c-0.7,0-1.3-0.3-1.8-0.8c-1-1-1-2.7,0-3.7l4.3-4.3
		c1-1,2.6-1,3.7,0c0.2,0.2,0.6,0.2,0.8,0c0.2-0.2,0.2-0.6,0-0.8c-1.4-1.5-3.8-1.5-5.3,0l-4.3,4.3c-1.5,1.5-1.5,3.8,0,5.3
		c0.7,0.7,1.6,1.1,2.6,1.1c1,0,1.9-0.4,2.6-1.1l3.2-3.2c0.2-0.2,0.2-0.6,0-0.8C132.3,15.7,131.9,15.7,131.7,15.9L131.7,15.9z
		 M131.7,15.9"/>
</g>
<g>
	<path class="st11" d="M115.9,28.1c-1.5-1.5-3.8-1.5-5.3,0l-3.3,3.3c-0.2,0.2-0.2,0.6,0,0.8c0.2,0.2,0.6,0.2,0.8,0l3.3-3.3
		c1-1,2.6-1,3.7,0c1,1,1,2.7,0,3.7l-4.3,4.3c-0.5,0.5-1.1,0.8-1.8,0.8c-0.7,0-1.3-0.3-1.8-0.8c-0.2-0.2-0.6-0.2-0.8,0
		c-0.2,0.2-0.2,0.6,0,0.8c0.7,0.7,1.6,1.1,2.6,1.1c1,0,1.9-0.4,2.6-1.1l4.3-4.3C117.4,31.9,117.4,29.5,115.9,28.1L115.9,28.1z
		 M115.9,28.1"/>
	<path class="st11" d="M107.7,39.9l-3.2,3.2c-0.5,0.5-1.1,0.8-1.8,0.8c-0.7,0-1.3-0.3-1.8-0.8c-1-1-1-2.7,0-3.7l4.3-4.3
		c1-1,2.6-1,3.7,0c0.2,0.2,0.6,0.2,0.8,0c0.2-0.2,0.2-0.6,0-0.8c-1.4-1.5-3.8-1.5-5.3,0l-4.3,4.3c-1.5,1.5-1.5,3.8,0,5.3
		c0.7,0.7,1.6,1.1,2.6,1.1c1,0,1.9-0.4,2.6-1.1l3.2-3.2c0.2-0.2,0.2-0.6,0-0.8C108.3,39.7,107.9,39.7,107.7,39.9L107.7,39.9z
		 M107.7,39.9"/>
</g>
<g>
	<g>
		<path class="st3" d="M139.9,28.1c-1.5-1.5-3.8-1.5-5.3,0l-3.3,3.3c-0.2,0.2-0.2,0.6,0,0.8c0.2,0.2,0.6,0.2,0.8,0l3.3-3.3
			c1-1,2.6-1,3.7,0c1,1,1,2.7,0,3.7l-4.3,4.3c-0.5,0.5-1.1,0.8-1.8,0.8c-0.7,0-1.3-0.3-1.8-0.8c-0.2-0.2-0.6-0.2-0.8,0
			c-0.2,0.2-0.2,0.6,0,0.8c0.7,0.7,1.6,1.1,2.6,1.1c1,0,1.9-0.4,2.6-1.1l4.3-4.3C141.4,31.9,141.4,29.5,139.9,28.1L139.9,28.1z
			 M139.9,28.1"/>
	</g>
	<g>
		<path class="st3" d="M131.7,39.9l-3.2,3.2c-0.5,0.5-1.1,0.8-1.8,0.8c-0.7,0-1.3-0.3-1.8-0.8c-1-1-1-2.7,0-3.7l4.3-4.3
			c1-1,2.6-1,3.7,0c0.2,0.2,0.6,0.2,0.8,0c0.2-0.2,0.2-0.6,0-0.8c-1.4-1.5-3.8-1.5-5.3,0l-4.3,4.3c-1.5,1.5-1.5,3.8,0,5.3
			c0.7,0.7,1.6,1.1,2.6,1.1c1,0,1.9-0.4,2.6-1.1l3.2-3.2c0.2-0.2,0.2-0.6,0-0.8C132.3,39.7,131.9,39.7,131.7,39.9L131.7,39.9z
			 M131.7,39.9"/>
	</g>
</g>
<g>
	<path class="st10" d="M69.5,13c-0.3,0-0.5,0.2-0.5,0.5V19H50v-5.5c0-0.3-0.2-0.5-0.5-0.5S49,13.2,49,13.5V19v0.5V20h21v-0.5V19
		v-5.5C70,13.2,69.8,13,69.5,13z"/>
	<path class="st10" d="M65,10.7L64.3,10L60,14.3V4c0-0.3-0.2-0.5-0.5-0.5S59,3.7,59,4v10.3L54.7,10L54,10.7l5.5,5.3L65,10.7z"/>
</g>
<g>
	<path class="st14" d="M93.5,13c-0.3,0-0.5,0.2-0.5,0.5V19H74v-5.5c0-0.3-0.2-0.5-0.5-0.5S73,13.2,73,13.5V19v0.5V20h21v-0.5V19
		v-5.5C94,13.2,93.8,13,93.5,13z"/>
	<path class="st14" d="M89,10.7L88.3,10L84,14.3V4c0-0.3-0.2-0.5-0.5-0.5S83,3.7,83,4v10.3L78.7,10L78,10.7l5.5,5.3L89,10.7z"/>
</g>
<g>
	<path class="st11" d="M69.5,37c-0.3,0-0.5,0.2-0.5,0.5V43H50v-5.5c0-0.3-0.2-0.5-0.5-0.5S49,37.2,49,37.5V43v0.5V44h21v-0.5V43
		v-5.5C70,37.2,69.8,37,69.5,37z"/>
	<path class="st11" d="M65,34.7L64.3,34L60,38.3V28c0-0.3-0.2-0.5-0.5-0.5S59,27.7,59,28v10.3L54.7,34L54,34.7l5.5,5.3L65,34.7z"/>
</g>
<g>
	<g>
		<path class="st3" d="M93.5,37c-0.3,0-0.5,0.2-0.5,0.5V43H74v-5.5c0-0.3-0.2-0.5-0.5-0.5S73,37.2,73,37.5V43v0.5V44h21v-0.5V43
			v-5.5C94,37.2,93.8,37,93.5,37z"/>
	</g>
	<g>
		<path class="st3" d="M89,34.7L88.3,34L84,38.3V28c0-0.3-0.2-0.5-0.5-0.5S83,27.7,83,28v10.3L78.7,34L78,34.7l5.5,5.3L89,34.7z"/>
	</g>
</g>
<polygon class="st11" points="163,11 157,11 157,5 155,5 155,11 149,11 149,13 155,13 155,19 157,19 157,13 163,13 "/>
<polygon class="st10" points="208.4,8.1 203.5,13 198.6,8.1 197.1,9.5 203.5,15.9 209.9,9.5 "/>
<polygon class="st11" points="208.4,32.1 203.5,37 198.6,32.1 197.1,33.5 203.5,39.9 209.9,33.5 "/>
<polygon class="st10" points="232.4,39.9 227.5,34.9 222.6,39.9 221.1,38.4 227.5,32.1 233.9,38.4 "/>
<polygon class="st14" points="256.4,32.1 251.5,37 246.6,32.1 245.1,33.5 251.5,39.9 257.9,33.5 "/>
<polygon class="st14" points="280.4,39.9 275.5,34.9 270.6,39.9 269.1,38.4 275.5,32.1 281.9,38.4 "/>
<polygon class="st11" points="232.4,15.9 227.5,10.9 222.6,15.9 221.1,14.4 227.5,8.1 233.9,14.4 "/>
<polygon class="st15" points="163,35 157,35 157,29 155,29 155,35 149,35 149,37 155,37 155,43 157,43 157,37 163,37 "/>
<rect x="173" y="11" class="st11" width="14" height="2"/>
<rect x="173" y="35" class="st15" width="14" height="2"/>
<path class="st10" d="M256,9h3.4h1.1h0.5V4h-1v3.9C258.5,5,255.5,3,252,3c-5,0-9,4-9,9c0,5,4,9,9,9c4.6,0,8.4-3.5,8.9-8h-1
	c-0.5,3.9-3.9,7-7.9,7c-4.4,0-8-3.6-8-8s3.6-8,8-8c3,0,5.5,1.6,6.9,4H256V9z"/>
<path class="st10" d="M280.1,5c-2.5-2.4-6.7-2.4-9.2,0c-2.3,2.1-2.5,6.2-0.6,8.6l5.2,7l5.2-7C282.6,11.1,282.4,7.1,280.1,5z
	 M275.5,13c-1.9,0-3.5-1.6-3.5-3.5s1.6-3.5,3.5-3.5s3.5,1.6,3.5,3.5S277.4,13,275.5,13z"/>
<path class="st14" d="M304.1,5c-2.5-2.4-6.7-2.4-9.2,0c-2.3,2.1-2.5,6.2-0.6,8.6l5.2,7l5.2-7C306.6,11.1,306.4,7.1,304.1,5z
	 M299.5,13c-1.9,0-3.5-1.6-3.5-3.5s1.6-3.5,3.5-3.5s3.5,1.6,3.5,3.5S301.4,13,299.5,13z"/>
<g>
	<path class="st11" d="M24,211c-0.3,0-0.5-0.1-0.7-0.3l-5.8-5.8c-0.2-0.2-0.3-0.4-0.3-0.7c0-0.3,0.1-0.5,0.3-0.7
		c0.2-0.2,0.4-0.3,0.7-0.3c0.3,0,0.5,0.1,0.7,0.3l4.1,4.1V180c0-0.6,0.4-1,1-1c0.6,0,1,0.4,1,1v27.8l4.1-4.3
		c0.2-0.2,0.4-0.3,0.7-0.3c0.3,0,0.5,0.1,0.7,0.3c0.4,0.4,0.4,1,0,1.4l-5.8,5.8C24.5,210.9,24.3,211,24,211z"/>
	<path class="st11" d="M24,221c-9.4,0-17-7.6-17-16.9c0-7.4,4.7-13.8,11.8-16.1c0.1,0,0.1,0,0.2,0c0.3,0,0.6,0.2,0.7,0.5
		c0.1,0.2,0,0.3,0,0.5c-0.1,0.2-0.2,0.3-0.4,0.3c-6.5,2.1-10.8,8-10.8,14.8c0,8.6,7,15.5,15.6,15.5c8.6,0,15.6-7,15.6-15.5
		c0-6.8-4.4-12.7-10.8-14.8c-0.2-0.1-0.3-0.2-0.4-0.3c-0.1-0.2-0.1-0.3,0-0.5c0.1-0.3,0.4-0.5,0.7-0.5c0.1,0,0.1,0,0.2,0
		c7.1,2.2,11.8,8.7,11.8,16.1C41,213.4,33.4,221,24,221z"/>
</g>
<g>
	<path class="st14" d="M72,211c-0.3,0-0.5-0.1-0.7-0.3l-5.8-5.8c-0.2-0.2-0.3-0.4-0.3-0.7c0-0.3,0.1-0.5,0.3-0.7
		c0.2-0.2,0.4-0.3,0.7-0.3c0.3,0,0.5,0.1,0.7,0.3l4.1,4.1V180c0-0.6,0.4-1,1-1c0.6,0,1,0.4,1,1v27.8l4.1-4.3
		c0.2-0.2,0.4-0.3,0.7-0.3c0.3,0,0.5,0.1,0.7,0.3c0.4,0.4,0.4,1,0,1.4l-5.8,5.8C72.5,210.9,72.3,211,72,211z"/>
	<path class="st14" d="M72,221c-9.4,0-17-7.6-17-16.9c0-7.4,4.7-13.8,11.8-16.1c0.1,0,0.1,0,0.2,0c0.3,0,0.6,0.2,0.7,0.5
		c0.1,0.2,0,0.3,0,0.5c-0.1,0.2-0.2,0.3-0.4,0.3c-6.5,2.1-10.8,8-10.8,14.8c0,8.6,7,15.5,15.6,15.5c8.6,0,15.6-7,15.6-15.5
		c0-6.8-4.4-12.7-10.8-14.8c-0.2-0.1-0.3-0.2-0.4-0.3c-0.1-0.2-0.1-0.3,0-0.5c0.1-0.3,0.4-0.5,0.7-0.5c0.1,0,0.1,0,0.2,0
		c7.1,2.2,11.8,8.7,11.8,16.1C89,213.4,81.4,221,72,221z"/>
</g>
<g>
	<path class="st16" d="M24,259c-0.3,0-0.5-0.1-0.7-0.3l-5.8-5.8c-0.2-0.2-0.3-0.4-0.3-0.7c0-0.3,0.1-0.5,0.3-0.7
		c0.2-0.2,0.4-0.3,0.7-0.3c0.3,0,0.5,0.1,0.7,0.3l4.1,4.1V228c0-0.6,0.4-1,1-1c0.6,0,1,0.4,1,1v27.8l4.1-4.3
		c0.2-0.2,0.4-0.3,0.7-0.3c0.3,0,0.5,0.1,0.7,0.3c0.4,0.4,0.4,1,0,1.4l-5.8,5.8C24.5,258.9,24.3,259,24,259z"/>
	<path class="st16" d="M24,269c-9.4,0-17-7.6-17-16.9c0-7.4,4.7-13.8,11.8-16.1c0.1,0,0.1,0,0.2,0c0.3,0,0.6,0.2,0.7,0.5
		c0.1,0.2,0,0.3,0,0.5c-0.1,0.2-0.2,0.3-0.4,0.3c-6.5,2.1-10.8,8-10.8,14.8c0,8.6,7,15.5,15.6,15.5c8.6,0,15.6-7,15.6-15.5
		c0-6.8-4.4-12.7-10.8-14.8c-0.2-0.1-0.3-0.2-0.4-0.3c-0.1-0.2-0.1-0.3,0-0.5c0.1-0.3,0.4-0.5,0.7-0.5c0.1,0,0.1,0,0.2,0
		c7.1,2.2,11.8,8.7,11.8,16.1C41,261.4,33.4,269,24,269z"/>
</g>
<g>
	<path class="st10" d="M72,259c-0.3,0-0.5-0.1-0.7-0.3l-5.8-5.8c-0.2-0.2-0.3-0.4-0.3-0.7c0-0.3,0.1-0.5,0.3-0.7
		c0.2-0.2,0.4-0.3,0.7-0.3c0.3,0,0.5,0.1,0.7,0.3l4.1,4.1V228c0-0.6,0.4-1,1-1c0.6,0,1,0.4,1,1v27.8l4.1-4.3
		c0.2-0.2,0.4-0.3,0.7-0.3c0.3,0,0.5,0.1,0.7,0.3c0.4,0.4,0.4,1,0,1.4l-5.8,5.8C72.5,258.9,72.3,259,72,259z"/>
	<path class="st10" d="M72,269c-9.4,0-17-7.6-17-16.9c0-7.4,4.7-13.8,11.8-16.1c0.1,0,0.1,0,0.2,0c0.3,0,0.6,0.2,0.7,0.5
		c0.1,0.2,0,0.3,0,0.5c-0.1,0.2-0.2,0.3-0.4,0.3c-6.5,2.1-10.8,8-10.8,14.8c0,8.6,7,15.5,15.6,15.5c8.6,0,15.6-7,15.6-15.5
		c0-6.8-4.4-12.7-10.8-14.8c-0.2-0.1-0.3-0.2-0.4-0.3c-0.1-0.2-0.1-0.3,0-0.5c0.1-0.3,0.4-0.5,0.7-0.5c0.1,0,0.1,0,0.2,0
		c7.1,2.2,11.8,8.7,11.8,16.1C89,261.4,81.4,269,72,269z"/>
</g>
<g>
	<line class="st7" x1="235.7" y1="66.4" x2="238.2" y2="63.9"/>
	<line class="st6" x1="228.6" y1="71" x2="225.4" y2="74.2"/>
	<line class="st6" x1="230.5" y1="73" x2="227.4" y2="76.2"/>
	<path class="st7" d="M235.9,83.3l-17-14.8c-0.3-0.2-0.7-0.2-1,0l-4,3.4v-3"/>
	<path class="st6" d="M213.3,69.7c0-0.4-0.3-0.7-0.7-0.7h-5.8c-0.4,0-0.7,0.3-0.7,0.7v9.1l-5.5,4.9c-0.2,0.2-0.3,0.5-0.2,0.8
		c0.1,0.3,0.4,0.5,0.7,0.5h2.1"/>
	<path class="st7" d="M203,85v18.3c0,0.4,0.3,0.7,0.7,0.7h10.3c0.4,0,0.7-0.3,0.7-0.7"/>
	<polyline class="st7" points="215,104 215,94 221,94 221,104 	"/>
	<path class="st7" d="M221.3,103.3c0,0.4,0.3,0.7,0.7,0.7h10.2c0.4,0,0.7-0.3,0.7-0.7V85h2.2c0.3,0,0.6-0.2,0.7-0.5"/>
	<path class="st8" d="M243.8,69.9c3.2-3.2,3.2-8.4,0-11.6c-3.2-3.2-8.4-3.2-11.6,0"/>
	<path class="st8" d="M241.1,68c1.9-1.9,1.9-5.1,0-7c-1.9-1.9-5.1-1.9-7,0"/>
	<path class="st6" d="M229.8,60.6c-3.2,3.2-3.2,8.4,0,11.6c3.2,3.2,8.4,3.2,11.6,0L229.8,60.6z"/>
</g>
<line class="st17" x1="23.1" y1="280.7" x2="24.6" y2="279.2"/>
<line class="st18" x1="19" y1="283.3" x2="17.1" y2="285.2"/>
<line class="st18" x1="20.1" y1="284.5" x2="18.2" y2="286.3"/>
<path class="st17" d="M23.3,290.5l-9.9-8.6c-0.2-0.1-0.4-0.1-0.6,0l-2.3,2v-1.4"/>
<path class="st18" d="M10,282c0-0.3-0.2-0.5-0.5-0.5H5.9c-0.2,0-0.4,0.2-0.4,0.4v5.7l-3.5,3c-0.1,0.1-0.2,0.3-0.1,0.5
	c0.1,0.2,0.2,0.3,0.4,0.3h1.2"/>
<path class="st17" d="M4.5,291.5v10.6c0,0.2,0.2,0.4,0.4,0.4h6"/>
<polyline class="st17" points="10.5,302.5 10.5,296.5 15.5,296.5 15.5,302.5 "/>
<path class="st17" d="M15.2,302.5h5.9c0.2,0,0.4-0.2,0.4-0.4v-10.6h1.3c0.2,0,0.3-0.1,0.4-0.3"/>
<path class="st19" d="M27.8,282.7c1.9-1.9,1.9-4.9,0-6.8c-1.9-1.9-4.9-1.9-6.8,0"/>
<path class="st19" d="M26.2,281.6c1.1-1.1,1.1-2.9,0-4.1c-1.1-1.1-2.9-1.1-4.1,0"/>
<path class="st18" d="M19.7,277.3c-1.9,1.9-1.9,4.9,0,6.8c1.9,1.9,4.9,1.9,6.8,0L19.7,277.3z"/>
<g>
	<line class="st6" x1="288" y1="56" x2="288" y2="104.7"/>
	<line class="st7" x1="263.5" y1="80.4" x2="311.5" y2="80.4"/>
	<line class="st8" x1="266.6" y1="68.2" x2="308.4" y2="68.2"/>
	<line class="st8" x1="266.6" y1="92.5" x2="308.4" y2="92.5"/>
	<path class="st7" d="M287.8,56.3c-13.7,0-24.8,10.9-24.8,24.4c0,13.5,11.1,24.4,24.8,24.4"/>
	<path class="st7" d="M287.2,105c13.7,0,24.8-10.9,24.8-24.4c0-13.4-11.1-24.4-24.8-24.4"/>
	<path class="st6" d="M287.8,56.3c-7.5,0-13.6,10.9-13.6,24.4c0,13.5,6.1,24.4,13.6,24.4"/>
	<path class="st6" d="M287.2,105c7.5,0,13.6-10.9,13.6-24.4c0-13.4-6.1-24.4-13.6-24.4"/>
	<line class="st8" x1="278.8" y1="68.2" x2="308.4" y2="68.2"/>
</g>
<g>
	<line class="st18" x1="47.5" y1="274.5" x2="47.5" y2="302.5"/>
	<line class="st17" x1="33.5" y1="288.5" x2="61.5" y2="288.5"/>
	<line class="st19" x1="35.5" y1="281.5" x2="59.5" y2="281.5"/>
	<line class="st19" x1="35.5" y1="295.5" x2="59.5" y2="295.5"/>
	<path class="st17" d="M47.7,274.7c-7.8,0-14.2,6.2-14.2,13.9c0,7.7,6.3,13.9,14.2,13.9"/>
	<path class="st17" d="M47.3,302.5c7.8,0,14.2-6.2,14.2-13.9c0-7.7-6.3-13.9-14.2-13.9"/>
	<path class="st18" d="M47.7,274.7c-4.3,0-7.8,6.2-7.8,13.9c0,7.7,3.5,13.9,7.8,13.9"/>
	<path class="st18" d="M47.3,302.5c4.3,0,7.8-6.2,7.8-13.9c0-7.7-3.5-13.9-7.8-13.9"/>
	<line class="st19" x1="42.5" y1="281.5" x2="59.5" y2="281.5"/>
</g>
<g>
	<g>
		<line class="st20" x1="327.9" y1="80.7" x2="334.2" y2="88.6"/>
		<line class="st20" x1="336.4" y1="80.7" x2="342.8" y2="88.6"/>
		<line class="st20" x1="344.9" y1="80.7" x2="351.3" y2="88.6"/>
		<line class="st20" x1="353.5" y1="80.7" x2="359.9" y2="88.6"/>
		<line class="st7" x1="362" y1="88" x2="326" y2="88"/>
		<line class="st7" x1="362" y1="104" x2="326" y2="104"/>
		<line class="st7" x1="362" y1="81" x2="362" y2="104"/>
		<line class="st7" x1="326" y1="81" x2="362" y2="81"/>
		<line class="st7" x1="326" y1="104" x2="326" y2="81"/>
		<line class="st20" x1="324" y1="73.5" x2="333.2" y2="76.9"/>
		<line class="st20" x1="331.3" y1="69.1" x2="340.5" y2="72.5"/>
		<line class="st20" x1="338.6" y1="64.7" x2="347.9" y2="68.1"/>
		<line class="st20" x1="346" y1="60.3" x2="355.2" y2="63.8"/>
		<line class="st7" x1="353.1" y1="56.1" x2="357.4" y2="63.1"/>
		<line class="st7" x1="321.8" y1="74.8" x2="353" y2="56.2"/>
		<line class="st7" x1="326.2" y1="81.2" x2="321.8" y2="74.2"/>
		<line class="st7" x1="356.7" y1="62.6" x2="325.5" y2="81.2"/>
		<line class="st7" x1="354.8" y1="58.9" x2="357.4" y2="63.1"/>
	</g>
	<g>
		<line class="st8" x1="382" y1="64" x2="382" y2="86"/>
		<circle class="st8" cx="376.5" cy="85.7" r="5.3"/>
		<line class="st8" x1="365.3" y1="76" x2="381.8" y2="70.3"/>
		<line class="st8" x1="365.1" y1="70.1" x2="381.8" y2="64.4"/>
		<line class="st8" x1="364" y1="91" x2="364" y2="69"/>
		<circle class="st8" cx="358.7" cy="90.7" r="5.3"/>
	</g>
</g>
<g>
	<line class="st6" x1="405.3" y1="63.9" x2="426.8" y2="63.9"/>
	<line class="st6" x1="405.3" y1="94.1" x2="426.8" y2="94.1"/>
	<path class="st7" d="M408.7,104c-2,0-3.6-1.4-3.6-3.1V59"/>
	<ellipse class="st8" cx="416" cy="99" rx="2" ry="1.9"/>
	<line class="st8" x1="410" y1="60.1" x2="422" y2="60.1"/>
	<path class="st7" d="M405.1,59.5c0-1.9,1.4-3.5,3.2-3.5h15.6"/>
	<path class="st7" d="M423.4,56c2,0,3.6,1.4,3.6,3.1v41.9"/>
	<path class="st7" d="M427,100.5c0,1.9-1.4,3.5-3.2,3.5h-15.6"/>
</g>
<g>
	<line class="st21" x1="482" y1="156" x2="482" y2="168"/>
	<line class="st21" x1="504" y1="120" x2="504" y2="167"/>
	<line class="st22" x1="452" y1="120" x2="509" y2="120"/>
	<line class="st22" x1="452" y1="168" x2="509" y2="168"/>
	<line class="st21" x1="458" y1="121" x2="458" y2="167"/>
	<path class="st8" d="M482,151.2c-3.9,0-7-3.1-7-6.8v-9.2c0-3.8,3.1-6.8,7-6.8c3.9,0,7,3.1,7,6.8v9.2
		C489,148.1,485.9,151.2,482,151.2z"/>
	<path class="st22" d="M492,144.2c0,5.6-4.5,10.2-10.1,10.2c-5.6,0-10.1-4.6-10.1-10.2"/>
</g>
<g>
	<line class="st21" x1="235.7" y1="130.4" x2="238.2" y2="127.9"/>
	<line class="st22" x1="228.6" y1="135" x2="225.4" y2="138.2"/>
	<line class="st22" x1="230.5" y1="137" x2="227.4" y2="140.2"/>
	<path class="st21" d="M235.9,147.3l-17-14.8c-0.3-0.2-0.7-0.2-1,0l-4,3.4v-3"/>
	<path class="st22" d="M213.3,133.7c0-0.4-0.3-0.7-0.7-0.7h-5.8c-0.4,0-0.7,0.3-0.7,0.7v9.1l-5.5,4.9c-0.2,0.2-0.3,0.5-0.2,0.8
		c0.1,0.3,0.4,0.5,0.7,0.5h2.1"/>
	<path class="st21" d="M203,149v18.3c0,0.4,0.3,0.7,0.7,0.7h10.3c0.4,0,0.7-0.3,0.7-0.7"/>
	<polyline class="st21" points="215,168 215,158 221,158 221,168 	"/>
	<path class="st21" d="M221.3,167.3c0,0.4,0.3,0.7,0.7,0.7h10.2c0.4,0,0.7-0.3,0.7-0.7V149h2.2c0.3,0,0.6-0.2,0.7-0.5"/>
	<path class="st8" d="M243.8,133.9c3.2-3.2,3.2-8.4,0-11.6c-3.2-3.2-8.4-3.2-11.6,0"/>
	<path class="st8" d="M241.1,132c1.9-1.9,1.9-5.1,0-7c-1.9-1.9-5.1-1.9-7,0"/>
	<path class="st22" d="M229.8,124.6c-3.2,3.2-3.2,8.4,0,11.6c3.2,3.2,8.4,3.2,11.6,0L229.8,124.6z"/>
</g>
<g>
	<line class="st22" x1="288" y1="120" x2="288" y2="168.7"/>
	<line class="st21" x1="263.5" y1="144.4" x2="311.5" y2="144.4"/>
	<line class="st8" x1="266.6" y1="132.2" x2="308.4" y2="132.2"/>
	<line class="st8" x1="266.6" y1="156.5" x2="308.4" y2="156.5"/>
	<path class="st21" d="M287.8,120.3c-13.7,0-24.8,10.9-24.8,24.4c0,13.5,11.1,24.4,24.8,24.4"/>
	<path class="st21" d="M287.2,169c13.7,0,24.8-10.9,24.8-24.4c0-13.4-11.1-24.4-24.8-24.4"/>
	<path class="st22" d="M287.8,120.3c-7.5,0-13.6,10.9-13.6,24.4c0,13.5,6.1,24.4,13.6,24.4"/>
	<path class="st22" d="M287.2,169c7.5,0,13.6-10.9,13.6-24.4c0-13.4-6.1-24.4-13.6-24.4"/>
</g>
<g>
	<line class="st22" x1="327.9" y1="144.7" x2="334.2" y2="152.6"/>
	<line class="st22" x1="336.4" y1="144.7" x2="342.8" y2="152.6"/>
	<line class="st22" x1="344.9" y1="144.7" x2="351.3" y2="152.6"/>
	<line class="st22" x1="353.5" y1="144.7" x2="359.9" y2="152.6"/>
	<line class="st21" x1="362" y1="152" x2="326" y2="152"/>
	<line class="st21" x1="362" y1="168" x2="326" y2="168"/>
	<line class="st21" x1="362" y1="145" x2="362" y2="168"/>
	<line class="st21" x1="326" y1="145" x2="362" y2="145"/>
	<line class="st21" x1="326" y1="168" x2="326" y2="145"/>
	<line class="st22" x1="324" y1="137.5" x2="333.2" y2="140.9"/>
	<line class="st22" x1="331.3" y1="133.1" x2="340.5" y2="136.5"/>
	<line class="st22" x1="338.6" y1="128.7" x2="347.9" y2="132.1"/>
	<line class="st22" x1="346" y1="124.3" x2="355.2" y2="127.8"/>
	<line class="st21" x1="353.1" y1="120.1" x2="357.4" y2="127.1"/>
	<line class="st21" x1="321.8" y1="138.8" x2="353" y2="120.2"/>
	<line class="st21" x1="326.2" y1="145.2" x2="321.8" y2="138.2"/>
	<line class="st21" x1="356.7" y1="126.6" x2="325.5" y2="145.2"/>
	<g>
		<line class="st8" x1="382" y1="128" x2="382" y2="150"/>
		<circle class="st8" cx="376.5" cy="149.7" r="5.3"/>
		<line class="st8" x1="365.3" y1="140" x2="381.8" y2="134.3"/>
		<line class="st8" x1="365.1" y1="134.1" x2="381.8" y2="128.4"/>
		<line class="st8" x1="364" y1="155" x2="364" y2="133"/>
		<circle class="st8" cx="358.7" cy="154.7" r="5.3"/>
	</g>
</g>
<g>
	<line class="st22" x1="405.3" y1="127.9" x2="426.8" y2="127.9"/>
	<line class="st22" x1="405.3" y1="158.1" x2="426.8" y2="158.1"/>
	<path class="st21" d="M408.7,168c-2,0-3.6-1.4-3.6-3.1V123"/>
	<ellipse class="st8" cx="416" cy="163" rx="2" ry="1.9"/>
	<line class="st8" x1="410" y1="124.1" x2="422" y2="124.1"/>
	<path class="st21" d="M405.1,123.5c0-1.9,1.4-3.5,3.2-3.5h15.6"/>
	<path class="st21" d="M423.4,120c2,0,3.6,1.4,3.6,3.1v41.9"/>
	<path class="st21" d="M427,164.5c0,1.9-1.4,3.5-3.2,3.5h-15.6"/>
</g>
<g>
	<g>
		<line class="st23" x1="68.7" y1="288.3" x2="71.7" y2="292"/>
		<line class="st23" x1="72.7" y1="288.3" x2="75.7" y2="292"/>
		<line class="st23" x1="76.7" y1="288.3" x2="79.6" y2="292"/>
		<line class="st23" x1="80.6" y1="288.3" x2="83.6" y2="292"/>
		<line class="st17" x1="84.5" y1="291.5" x2="67.5" y2="291.5"/>
		<line class="st17" x1="84.5" y1="299.5" x2="67.5" y2="299.5"/>
		<line class="st17" x1="84.5" y1="288.5" x2="84.5" y2="299.5"/>
		<line class="st17" x1="67.5" y1="288.5" x2="84.5" y2="288.5"/>
		<line class="st17" x1="67.5" y1="299.5" x2="67.5" y2="288.5"/>
		<line class="st23" x1="66.9" y1="285" x2="71.2" y2="286.6"/>
		<line class="st23" x1="70.3" y1="282.9" x2="74.6" y2="284.5"/>
		<line class="st23" x1="73.7" y1="280.9" x2="78" y2="282.5"/>
		<line class="st23" x1="77.1" y1="278.9" x2="81.4" y2="280.5"/>
		<line class="st17" x1="80.5" y1="276.9" x2="82.5" y2="280.2"/>
		<line class="st17" x1="65.9" y1="285.6" x2="80.4" y2="277"/>
		<line class="st17" x1="67.9" y1="288.6" x2="65.9" y2="285.3"/>
		<line class="st17" x1="82.2" y1="279.9" x2="67.6" y2="288.6"/>
		<line class="st17" x1="81.3" y1="278.2" x2="82.5" y2="280.1"/>
	</g>
	<g>
		<line class="st19" x1="93.5" y1="280.5" x2="93.5" y2="290.5"/>
		<circle class="st19" cx="91.4" cy="290.7" r="2.5"/>
		<line class="st19" x1="86.1" y1="286.2" x2="93.8" y2="283.5"/>
		<line class="st19" x1="86.1" y1="283.4" x2="93.8" y2="280.8"/>
		<line class="st19" x1="85.5" y1="293.5" x2="85.5" y2="282.5"/>
		<circle class="st19" cx="83.1" cy="293" r="2.5"/>
	</g>
</g>
<g>
	<line class="st18" x1="105.5" y1="279.5" x2="118.5" y2="279.5"/>
	<line class="st18" x1="105.5" y1="297.5" x2="118.5" y2="297.5"/>
	<path class="st17" d="M107.6,302.6c-1.2,0-2.1-0.8-2.1-1.8v-24.7"/>
	<ellipse class="st19" cx="112" cy="300.1" rx="1.2" ry="1.1"/>
	<line class="st19" x1="108.5" y1="277.5" x2="115.5" y2="277.5"/>
	<path class="st17" d="M105.7,276.6c0-1.1,0.8-2.1,1.9-2.1h9"/>
	<path class="st17" d="M116.4,275c1.2,0,2.1,0.8,2.1,1.8v24.7"/>
	<path class="st17" d="M118.4,300.4c0,1.1-0.8,2.1-1.9,2.1h-9.1"/>
</g>
<g>
	<line class="st17" x1="144.5" y1="293.5" x2="144.5" y2="299.5"/>
	<line class="st17" x1="155.5" y1="276.5" x2="155.5" y2="299.5"/>
	<line class="st18" x1="129.5" y1="276.5" x2="157.5" y2="276.5"/>
	<line class="st18" x1="129.5" y1="299.5" x2="157.5" y2="299.5"/>
	<line class="st17" x1="132.5" y1="276.5" x2="132.5" y2="299.5"/>
	<path class="st19" d="M144,291.6c-1.9,0-3.5-1.5-3.5-3.4v-4.6c0-1.9,1.6-3.4,3.5-3.4c1.9,0,3.5,1.5,3.5,3.4v4.6
		C147.5,290.1,145.9,291.6,144,291.6z"/>
	<path class="st18" d="M149.1,288.1c0,2.8-2.2,5-4.9,5c-2.7,0-4.9-2.2-4.9-5"/>
</g>
<line class="st24" x1="23.1" y1="312.7" x2="24.6" y2="311.2"/>
<line class="st25" x1="19" y1="315.3" x2="17.1" y2="317.2"/>
<line class="st25" x1="20.1" y1="316.5" x2="18.2" y2="318.3"/>
<path class="st24" d="M23.3,322.5l-9.9-8.6c-0.2-0.1-0.4-0.1-0.6,0l-2.3,2v-1.4"/>
<path class="st25" d="M10,314c0-0.3-0.2-0.5-0.5-0.5H5.9c-0.2,0-0.4,0.2-0.4,0.4v5.7l-3.5,3c-0.1,0.1-0.2,0.3-0.1,0.5
	c0.1,0.2,0.2,0.3,0.4,0.3h1.2"/>
<path class="st24" d="M4.5,323.5v10.6c0,0.2,0.2,0.4,0.4,0.4h6"/>
<polyline class="st24" points="10.5,334.5 10.5,328.5 15.5,328.5 15.5,334.5 "/>
<path class="st24" d="M15.2,334.5h5.9c0.2,0,0.4-0.2,0.4-0.4v-10.6h1.3c0.2,0,0.3-0.1,0.4-0.3"/>
<path class="st19" d="M27.8,314.7c1.9-1.9,1.9-4.9,0-6.8c-1.9-1.9-4.9-1.9-6.8,0"/>
<path class="st19" d="M26.2,313.6c1.1-1.1,1.1-2.9,0-4.1c-1.1-1.1-2.9-1.1-4.1,0"/>
<path class="st25" d="M19.7,309.3c-1.9,1.9-1.9,4.9,0,6.8c1.9,1.9,4.9,1.9,6.8,0L19.7,309.3z"/>
<g>
	<line class="st25" x1="47.5" y1="306.5" x2="47.5" y2="334.5"/>
	<line class="st24" x1="33.5" y1="320.5" x2="61.5" y2="320.5"/>
	<line class="st19" x1="35.5" y1="313.5" x2="59.5" y2="313.5"/>
	<line class="st19" x1="35.5" y1="327.5" x2="59.5" y2="327.5"/>
	<path class="st24" d="M47.7,306.7c-7.8,0-14.2,6.2-14.2,13.9c0,7.7,6.3,13.9,14.2,13.9"/>
	<path class="st24" d="M47.3,334.5c7.8,0,14.2-6.2,14.2-13.9c0-7.7-6.3-13.9-14.2-13.9"/>
	<path class="st25" d="M47.7,306.7c-4.3,0-7.8,6.2-7.8,13.9c0,7.7,3.5,13.9,7.8,13.9"/>
	<path class="st25" d="M47.3,334.5c4.3,0,7.8-6.2,7.8-13.9c0-7.7-3.5-13.9-7.8-13.9"/>
	<line class="st19" x1="42.5" y1="313.5" x2="59.5" y2="313.5"/>
</g>
<g>
	<line class="st25" x1="68.7" y1="320.3" x2="71.7" y2="324"/>
	<line class="st25" x1="72.7" y1="320.3" x2="75.7" y2="324"/>
	<line class="st25" x1="76.7" y1="320.3" x2="79.6" y2="324"/>
	<line class="st25" x1="80.6" y1="320.3" x2="83.6" y2="324"/>
	<line class="st24" x1="84.5" y1="323.5" x2="67.5" y2="323.5"/>
	<line class="st24" x1="84.5" y1="331.5" x2="67.5" y2="331.5"/>
	<line class="st24" x1="84.5" y1="320.5" x2="84.5" y2="331.5"/>
	<line class="st24" x1="67.5" y1="320.5" x2="84.5" y2="320.5"/>
	<line class="st24" x1="67.5" y1="331.5" x2="67.5" y2="320.5"/>
	<line class="st25" x1="66.9" y1="317" x2="71.2" y2="318.6"/>
	<line class="st25" x1="70.3" y1="314.9" x2="74.6" y2="316.5"/>
	<line class="st25" x1="73.7" y1="312.9" x2="78" y2="314.5"/>
	<line class="st25" x1="77.1" y1="310.9" x2="81.4" y2="312.5"/>
	<line class="st24" x1="80.5" y1="308.9" x2="82.5" y2="312.2"/>
	<line class="st24" x1="65.9" y1="317.6" x2="80.4" y2="309"/>
	<line class="st24" x1="67.9" y1="320.6" x2="65.9" y2="317.3"/>
	<line class="st24" x1="82.2" y1="311.9" x2="67.6" y2="320.6"/>
	<g>
		<line class="st19" x1="93.5" y1="312.5" x2="93.5" y2="322.5"/>
		<circle class="st19" cx="91.4" cy="322.7" r="2.5"/>
		<line class="st19" x1="86.1" y1="318.2" x2="93.8" y2="315.5"/>
		<line class="st19" x1="86.1" y1="315.4" x2="93.8" y2="312.8"/>
		<line class="st19" x1="85.5" y1="325.5" x2="85.5" y2="314.5"/>
		<circle class="st19" cx="83.1" cy="325" r="2.5"/>
	</g>
</g>
<g>
	<line class="st7" x1="482" y1="92" x2="482" y2="104"/>
	<line class="st7" x1="504" y1="56" x2="504" y2="103"/>
	<line class="st6" x1="452" y1="56" x2="509" y2="56"/>
	<line class="st6" x1="452" y1="104" x2="509" y2="104"/>
	<line class="st7" x1="458" y1="57" x2="458" y2="103"/>
	<path class="st8" d="M482,87.2c-3.9,0-7-3.1-7-6.8v-9.2c0-3.8,3.1-6.8,7-6.8c3.9,0,7,3.1,7,6.8v9.2C489,84.1,485.9,87.2,482,87.2z"
		/>
	<path class="st6" d="M492,80.2c0,5.6-4.5,10.2-10.1,10.2c-5.6,0-10.1-4.6-10.1-10.2"/>
</g>
<g>
	<line class="st25" x1="105.5" y1="311.5" x2="118.5" y2="311.5"/>
	<line class="st25" x1="105.5" y1="329.5" x2="118.5" y2="329.5"/>
	<path class="st24" d="M107.6,334.6c-1.2,0-2.1-0.8-2.1-1.8v-24.7"/>
	<ellipse class="st19" cx="112" cy="332.1" rx="1.2" ry="1.1"/>
	<line class="st19" x1="108.5" y1="309.5" x2="115.5" y2="309.5"/>
	<path class="st24" d="M105.7,308.6c0-1.1,0.8-2.1,1.9-2.1h9"/>
	<path class="st24" d="M116.5,306.5c1.2,0,2,1.3,2,2.3v24.7"/>
	<path class="st24" d="M118.4,332.4c0,1.1-0.8,2.1-1.9,2.1h-9.1"/>
</g>
<g>
	<line class="st24" x1="144.5" y1="325.5" x2="144.5" y2="331.5"/>
	<line class="st24" x1="155.5" y1="308.5" x2="155.5" y2="331.5"/>
	<line class="st24" x1="132.5" y1="308.5" x2="132.5" y2="331.5"/>
	<path class="st19" d="M144,323.6c-1.9,0-3.5-1.5-3.5-3.4v-4.6c0-1.9,1.6-3.4,3.5-3.4c1.9,0,3.5,1.5,3.5,3.4v4.6
		C147.5,322.1,145.9,323.6,144,323.6z"/>
	<path class="st25" d="M149.1,320.1c0,2.8-2.2,5-4.9,5c-2.7,0-4.9-2.2-4.9-5"/>
	<line class="st25" x1="129.5" y1="308.5" x2="157.5" y2="308.5"/>
	<line class="st25" x1="129.5" y1="331.5" x2="157.5" y2="331.5"/>
</g>
<g>
	<path class="st11" d="M588.3,104c-2.4,0-4.3-1.9-4.3-4.3V76.8c0-0.6,0.4-1,1-1c0.6,0,1,0.5,1,1v22.9c0,1.1,0.7,2.2,1.8,2.5
		c1.7,0.4,3.2-0.8,3.2-2.4V60.6c0-2,1.6-3.6,3.6-3.6h32.8c2,0,3.6,1.6,3.6,3.6v39.1c0,2.4-1.9,4.3-4.3,4.3H588.3z M594.7,59
		c-1,0-1.7,0.8-1.7,1.7v38.9c0,0.6-0.2,1.3-0.4,1.8l-0.3,0.6h34.3c1.3,0,2.4-1.1,2.4-2.4V60.7c0-1-0.8-1.7-1.7-1.7H594.7z"/>
	<path class="st10" d="M624.3,83h-26.5c-0.4,0-0.8-0.3-0.8-0.8v-0.5c0-0.4,0.3-0.8,0.8-0.8h26.5c0.4,0,0.8,0.3,0.8,0.8v0.5
		C625,82.7,624.7,83,624.3,83z"/>
	<path class="st10" d="M624.3,89h-26.5c-0.4,0-0.8-0.3-0.8-0.8v-0.5c0-0.4,0.3-0.8,0.8-0.8h26.5c0.4,0,0.8,0.3,0.8,0.8v0.5
		C625,88.7,624.7,89,624.3,89z"/>
	<path class="st10" d="M624.3,95h-26.5c-0.4,0-0.8-0.3-0.8-0.8v-0.5c0-0.4,0.3-0.8,0.8-0.8h26.5c0.4,0,0.8,0.3,0.8,0.8v0.5
		C625,94.7,624.7,95,624.3,95z"/>
	<path class="st16" d="M623,65h-24c-1.1,0-2,0.9-2,2v7c0,1.1,0.9,2,2,2h24c1.1,0,2-0.9,2-2v-7C625,65.9,624.1,65,623,65z M623,72
		c0,1.1-0.9,2-2,2h-20c-1.1,0-2-0.9-2-2v-3c0-1.1,0.9-2,2-2h20c1.1,0,2,0.9,2,2V72z"/>
</g>
<g>
	<path class="st14" d="M588.3,168c-2.4,0-4.3-1.9-4.3-4.3v-22.9c0-0.6,0.4-1,1-1c0.6,0,1,0.5,1,1v22.9c0,1.1,0.7,2.2,1.8,2.5
		c1.7,0.4,3.2-0.8,3.2-2.4v-39.3c0-2,1.6-3.6,3.6-3.6h32.8c2,0,3.6,1.6,3.6,3.6v39.1c0,2.4-1.9,4.3-4.3,4.3H588.3z M594.7,123
		c-1,0-1.7,0.8-1.7,1.7v38.9c0,0.6-0.2,1.3-0.4,1.8l-0.3,0.6h34.3c1.3,0,2.4-1.1,2.4-2.4v-38.8c0-1-0.8-1.7-1.7-1.7H594.7z"/>
	<path class="st26" d="M624.3,147h-26.5c-0.4,0-0.8-0.3-0.8-0.8v-0.5c0-0.4,0.3-0.8,0.8-0.8h26.5c0.4,0,0.8,0.3,0.8,0.8v0.5
		C625,146.7,624.7,147,624.3,147z"/>
	<path class="st26" d="M624.3,153h-26.5c-0.4,0-0.8-0.3-0.8-0.8v-0.5c0-0.4,0.3-0.8,0.8-0.8h26.5c0.4,0,0.8,0.3,0.8,0.8v0.5
		C625,152.7,624.7,153,624.3,153z"/>
	<path class="st26" d="M624.3,159h-26.5c-0.4,0-0.8-0.3-0.8-0.8v-0.5c0-0.4,0.3-0.8,0.8-0.8h26.5c0.4,0,0.8,0.3,0.8,0.8v0.5
		C625,158.7,624.7,159,624.3,159z"/>
	<path class="st16" d="M623,129h-24c-1.1,0-2,0.9-2,2v7c0,1.1,0.9,2,2,2h24c1.1,0,2-0.9,2-2v-7C625,129.9,624.1,129,623,129z
		 M623,136c0,1.1-0.9,2-2,2h-20c-1.1,0-2-0.9-2-2v-3c0-1.1,0.9-2,2-2h20c1.1,0,2,0.9,2,2V136z"/>
</g>
<g>
	<g>
		<path class="st11" d="M544.6,81L530,93.2c-0.5,0.4-1.1,0.7-1.7,0.7c-0.6,0-1.3-0.2-1.7-0.7c-0.5-0.4-0.7-1-0.7-1.7
			c0-0.6,0.3-1.2,0.8-1.7l12.6-14.1l-1.3-1.3l-12.7,14.2c-1.3,1.3-1.6,3.2-0.8,4.8l0.2,0.4l-0.3,0.4c-0.9,1.3-1.4,2.7-1.4,4.3
			c0,2,0.8,3.8,2.2,5.3c0.2,0.2,0.4,0.3,0.7,0.3c0.3,0,0.5-0.1,0.7-0.3c0.2-0.2,0.3-0.4,0.3-0.6s-0.1-0.5-0.3-0.6
			c-1.8-1.8-2.2-4.6-0.9-6.8l0.3-0.6l0.6,0.3c0.5,0.2,1.1,0.3,1.7,0.3c1.1,0,2.2-0.4,3-1.2l14.6-12.2l-6.2-6L544.6,81z"/>
		<path class="st11" d="M562.3,58.7c-1.8-1.7-4.1-2.7-6.6-2.7c-2.5,0-4.8,0.9-6.6,2.7c-0.8,0.7-1.4,1.6-1.8,2.5l-0.5,0.9l12,11.6
			l1-0.4c1-0.4,1.8-1,2.6-1.8c1.8-1.7,2.7-4,2.7-6.4C565,62.6,564,60.4,562.3,58.7z M560.9,70.2c-0.9,0.9-2.1,1.6-3.3,1.9l-0.4,0.1
			l-8.9-8.6l0.1-0.4c0.3-1.2,1-2.3,1.9-3.2c1.4-1.4,3.3-2.1,5.3-2.1c2,0,3.9,0.8,5.3,2.1c1.4,1.4,2.2,3.2,2.2,5.1
			C563.1,67,562.3,68.8,560.9,70.2z"/>
	</g>
	<path class="st16" d="M559.9,74.8l-1.2-1.1L545.6,61c-0.2-0.2-0.4-0.3-0.7-0.3c-0.3,0-0.5,0.1-0.7,0.3l-9.5,9.2
		c-0.2,0.2-0.3,0.4-0.3,0.6s0.1,0.5,0.3,0.6l3.1,3l8.1,7.8l3.1,3c0.2,0.2,0.4,0.3,0.7,0.3c0.3,0,0.5-0.1,0.7-0.3l9.5-9.2
		c0.2-0.2,0.3-0.4,0.3-0.6C560.2,75.2,560.1,75,559.9,74.8z M549.7,83.4l-12.9-12.5l8.2-7.9l12.9,12.5L549.7,83.4z"/>
	<path class="st10" d="M549.7,76.3c-0.3,0-0.5-0.1-0.7-0.3l-4.8-4.6c-0.2-0.2-0.3-0.4-0.3-0.6c0-0.2,0.1-0.5,0.3-0.6
		c0.2-0.2,0.4-0.3,0.7-0.3s0.5,0.1,0.7,0.3l4.8,4.6c0.2,0.2,0.3,0.4,0.3,0.6c0,0.2-0.1,0.5-0.3,0.6C550.2,76.2,550,76.3,549.7,76.3z
		"/>
	<path class="st10" d="M564,104h-38c-0.5,0-1-0.4-1-1l0,0c0-0.6,0.5-1,1-1h38c0.5,0,1,0.4,1,1l0,0C565,103.6,564.5,104,564,104z"/>
</g>
<g>
	<g>
		<path class="st14" d="M544.6,145L530,157.2c-0.5,0.4-1.1,0.7-1.7,0.7c-0.6,0-1.3-0.2-1.7-0.7c-0.5-0.4-0.7-1-0.7-1.7
			s0.3-1.2,0.8-1.7l12.6-14.1l-1.3-1.3l-12.7,14.2c-1.3,1.3-1.6,3.2-0.8,4.8l0.2,0.4l-0.3,0.4c-0.9,1.3-1.4,2.7-1.4,4.3
			c0,2,0.8,3.8,2.2,5.3c0.2,0.2,0.4,0.3,0.7,0.3c0.3,0,0.5-0.1,0.7-0.3c0.2-0.2,0.3-0.4,0.3-0.6s-0.1-0.5-0.3-0.6
			c-1.8-1.8-2.2-4.6-0.9-6.8l0.3-0.6l0.6,0.3c0.5,0.2,1.1,0.3,1.7,0.3c1.1,0,2.2-0.4,3-1.2l14.6-12.2l-6.2-6L544.6,145z"/>
		<path class="st14" d="M562.3,122.7c-1.8-1.7-4.1-2.7-6.6-2.7c-2.5,0-4.8,0.9-6.6,2.7c-0.8,0.7-1.4,1.6-1.8,2.5l-0.5,0.9l12,11.6
			l1-0.4c1-0.4,1.8-1,2.6-1.8c1.8-1.7,2.7-4,2.7-6.4C565,126.6,564,124.4,562.3,122.7z M560.9,134.2c-0.9,0.9-2.1,1.6-3.3,1.9
			l-0.4,0.1l-8.9-8.6l0.1-0.4c0.3-1.2,1-2.3,1.9-3.2c1.4-1.4,3.3-2.1,5.3-2.1c2,0,3.9,0.8,5.3,2.1c1.4,1.4,2.2,3.2,2.2,5.1
			C563.1,131,562.3,132.8,560.9,134.2z"/>
	</g>
	<path class="st16" d="M559.9,138.8l-1.2-1.1L545.6,125c-0.2-0.2-0.4-0.3-0.7-0.3c-0.3,0-0.5,0.1-0.7,0.3l-9.5,9.2
		c-0.2,0.2-0.3,0.4-0.3,0.6s0.1,0.5,0.3,0.6l3.1,3l8.1,7.8l3.1,3c0.2,0.2,0.4,0.3,0.7,0.3c0.3,0,0.5-0.1,0.7-0.3l9.5-9.2
		c0.2-0.2,0.3-0.4,0.3-0.6C560.2,139.2,560.1,139,559.9,138.8z M549.7,147.4l-12.9-12.5l8.2-7.9l12.9,12.5L549.7,147.4z"/>
	<path class="st26" d="M549.7,140.3c-0.3,0-0.5-0.1-0.7-0.3l-4.8-4.6c-0.2-0.2-0.3-0.4-0.3-0.6c0-0.2,0.1-0.5,0.3-0.6
		c0.2-0.2,0.4-0.3,0.7-0.3s0.5,0.1,0.7,0.3l4.8,4.6c0.2,0.2,0.3,0.4,0.3,0.6c0,0.2-0.1,0.5-0.3,0.6
		C550.2,140.2,550,140.3,549.7,140.3z"/>
	<path class="st26" d="M564,168h-38c-0.5,0-1-0.4-1-1l0,0c0-0.6,0.5-1,1-1h38c0.5,0,1,0.4,1,1l0,0C565,167.6,564.5,168,564,168z"/>
</g>
<g>
	<path class="st27" d="M694.6,99h-45.1c-0.8,0-1.4-0.6-1.4-1.4V69.4c0-0.8,0.6-1.4,1.4-1.4h45.1c0.8,0,1.4,0.6,1.4,1.4v28.1
		C696,98.4,695.4,99,694.6,99z"/>
	<path class="st6" d="M681,68h-18v-4.7c0-0.7,0.6-1.3,1.4-1.3h15.3c0.8,0,1.4,0.6,1.4,1.3V68z"/>
	<path class="st16" d="M672,95c-0.3,0-0.5-0.1-0.7-0.3l-5.8-5.8c-0.2-0.2-0.3-0.4-0.3-0.7c0-0.3,0.1-0.5,0.3-0.7
		c0.2-0.2,0.4-0.3,0.7-0.3c0.3,0,0.5,0.1,0.7,0.3l4.1,4.1V75c0-0.6,0.4-1,1-1c0.6,0,1,0.4,1,1v16.8l4.1-4.3c0.2-0.2,0.4-0.3,0.7-0.3
		c0.3,0,0.5,0.1,0.7,0.3c0.4,0.4,0.4,1,0,1.4l-5.8,5.8C672.5,94.9,672.3,95,672,95z"/>
</g>
<g>
	<path class="st21" d="M694.6,163h-45.1c-0.8,0-1.4-0.6-1.4-1.4v-28.1c0-0.8,0.6-1.4,1.4-1.4h45.1c0.8,0,1.4,0.6,1.4,1.4v28.1
		C696,162.4,695.4,163,694.6,163z"/>
	<path class="st22" d="M681,132h-18v-4.7c0-0.7,0.6-1.3,1.4-1.3h15.3c0.8,0,1.4,0.6,1.4,1.3V132z"/>
	<path class="st16" d="M672,159c-0.3,0-0.5-0.1-0.7-0.3l-5.8-5.8c-0.2-0.2-0.3-0.4-0.3-0.7c0-0.3,0.1-0.5,0.3-0.7
		c0.2-0.2,0.4-0.3,0.7-0.3c0.3,0,0.5,0.1,0.7,0.3l4.1,4.1V139c0-0.6,0.4-1,1-1c0.6,0,1,0.4,1,1v16.8l4.1-4.3
		c0.2-0.2,0.4-0.3,0.7-0.3c0.3,0,0.5,0.1,0.7,0.3c0.4,0.4,0.4,1,0,1.4l-5.8,5.8C672.5,158.9,672.3,159,672,159z"/>
</g>
<path class="st10" d="M330.2,14.7c-0.4-0.4-0.9-0.6-1.4-0.6c-0.5,0-1,0.2-1.4,0.6l-1.3,1.3c-0.1-0.1-0.2-0.1-0.3-0.2
	c-0.1-0.1-0.3-0.1-0.4-0.2c-1.2-0.8-2.3-1.7-3.3-3c-0.5-0.6-0.8-1.2-1.1-1.7c0.3-0.3,0.6-0.6,0.9-0.9c0.1-0.1,0.2-0.2,0.3-0.3
	c0.9-0.8,0.9-1.9,0-2.8l-1.1-1.1c-0.1-0.1-0.3-0.3-0.4-0.4c-0.2-0.2-0.5-0.5-0.8-0.7c-0.4-0.4-0.9-0.6-1.4-0.6c-0.5,0-1,0.2-1.4,0.6
	c0,0,0,0,0,0L315.9,6c-0.5,0.5-0.8,1.1-0.9,1.9c-0.1,1.2,0.3,2.3,0.5,3c0.7,1.8,1.6,3.4,3.1,5.1c1.8,2.1,3.9,3.8,6.3,4.9
	c0.9,0.4,2.2,1,3.6,1c0.1,0,0.2,0,0.3,0c0.9,0,1.7-0.3,2.3-1c0,0,0,0,0,0c0.2-0.3,0.5-0.5,0.7-0.7c0.2-0.2,0.4-0.3,0.5-0.5
	c0.4-0.4,0.6-0.9,0.6-1.4c0-0.5-0.2-1-0.6-1.4L330.2,14.7z M331.6,19C331.6,19,331.6,19,331.6,19c-0.2,0.2-0.3,0.3-0.5,0.5
	c-0.3,0.3-0.5,0.5-0.8,0.8c-0.4,0.4-0.9,0.6-1.5,0.6c-0.1,0-0.1,0-0.2,0c-1.2-0.1-2.3-0.5-3.2-0.9c-2.3-1.1-4.3-2.7-6-4.7
	c-1.4-1.7-2.3-3.2-2.9-4.8c-0.4-1-0.5-1.8-0.5-2.5c0-0.5,0.2-0.9,0.6-1.2l1.4-1.4c0.2-0.2,0.4-0.3,0.6-0.3c0.3,0,0.5,0.2,0.6,0.3
	c0,0,0,0,0,0c0.2,0.2,0.5,0.5,0.7,0.7c0.1,0.1,0.3,0.3,0.4,0.4l1.1,1.1c0.4,0.4,0.4,0.8,0,1.3c-0.1,0.1-0.2,0.2-0.3,0.3
	c-0.3,0.3-0.7,0.7-1,1c0,0,0,0,0,0c-0.3,0.3-0.3,0.7-0.2,0.9c0,0,0,0,0,0c0.3,0.7,0.7,1.3,1.3,2.1l0,0c1.1,1.4,2.3,2.4,3.6,3.3
	c0.2,0.1,0.3,0.2,0.5,0.3c0.1,0.1,0.3,0.1,0.4,0.2c0,0,0,0,0,0c0.1,0.1,0.3,0.1,0.4,0.1c0.3,0,0.5-0.2,0.6-0.3l1.4-1.4
	c0.1-0.1,0.4-0.3,0.6-0.3c0.3,0,0.5,0.2,0.6,0.3c0,0,0,0,0,0l2.2,2.2C332,18.1,332,18.5,331.6,19z"/>
<g>
	<g>
		<path class="st10" d="M356.6,5h-17.2c-0.2,0-0.4,0.2-0.4,0.4v13.1c0,0.2,0.2,0.4,0.4,0.4h17.2c0.2,0,0.4-0.2,0.4-0.4V5.4
			C357,5.2,356.8,5,356.6,5z M355.4,5.9l-7.4,7.9l-7.4-7.9H355.4z M339.8,6.2l5.1,5.4l-5.1,5.4V6.2z M340,18.1l5.5-5.9l2.2,2.4
			c0.2,0.2,0.4,0.2,0.6,0l2.2-2.4l5.5,5.9H340z M356.2,17.1l-5.1-5.4l5.1-5.4V17.1z"/>
	</g>
</g>
<g>
	<rect x="368" y="11" class="st10" width="6" height="1"/>
	<rect x="368" y="13" class="st10" width="8" height="1"/>
	<rect x="368" y="15" class="st10" width="8" height="1"/>
	<path class="st10" d="M378.5,5H366c0,0-2,0-2,2v5.5c0,1.5,2,1.5,2,1.5v5c0,0.2,0,1,1,1h10c0.2,0,1,0,1-1v-5c0,0,2,0,2-2V6.6
		C380,5.7,379.4,5,378.5,5z M377,19h-10l0-6.5l0-2.5c0-0.2,0-1,1-1h8c0.2,0,1,0,1,1l0,2.5L377,19z M379,12c0,1-1,1-1,0V8h-12v4
		c0,1-1,1-1,0V7c0,0,0-1,1-1h12c1,0,1,1,1,1V12z"/>
</g>
<path class="st14" d="M330.2,38.7c-0.4-0.4-0.9-0.6-1.4-0.6c-0.5,0-1,0.2-1.4,0.6l-1.3,1.3c-0.1-0.1-0.2-0.1-0.3-0.2
	c-0.1-0.1-0.3-0.1-0.4-0.2c-1.2-0.8-2.3-1.7-3.3-3c-0.5-0.6-0.8-1.2-1.1-1.7c0.3-0.3,0.6-0.6,0.9-0.9c0.1-0.1,0.2-0.2,0.3-0.3
	c0.9-0.8,0.9-1.9,0-2.8l-1.1-1.1c-0.1-0.1-0.3-0.3-0.4-0.4c-0.2-0.2-0.5-0.5-0.8-0.7c-0.4-0.4-0.9-0.6-1.4-0.6c-0.5,0-1,0.2-1.4,0.6
	c0,0,0,0,0,0l-1.4,1.4c-0.5,0.5-0.8,1.1-0.9,1.9c-0.1,1.2,0.3,2.3,0.5,3c0.7,1.8,1.6,3.4,3.1,5.1c1.8,2.1,3.9,3.8,6.3,4.9
	c0.9,0.4,2.2,1,3.6,1c0.1,0,0.2,0,0.3,0c0.9,0,1.7-0.3,2.3-1c0,0,0,0,0,0c0.2-0.3,0.5-0.5,0.7-0.7c0.2-0.2,0.4-0.3,0.5-0.5
	c0.4-0.4,0.6-0.9,0.6-1.4c0-0.5-0.2-1-0.6-1.4L330.2,38.7z M331.6,43C331.6,43,331.6,43,331.6,43c-0.2,0.2-0.3,0.3-0.5,0.5
	c-0.3,0.3-0.5,0.5-0.8,0.8c-0.4,0.4-0.9,0.6-1.5,0.6c-0.1,0-0.1,0-0.2,0c-1.2-0.1-2.3-0.5-3.2-0.9c-2.3-1.1-4.3-2.7-6-4.7
	c-1.4-1.7-2.3-3.2-2.9-4.8c-0.4-1-0.5-1.8-0.5-2.5c0-0.5,0.2-0.9,0.6-1.2l1.4-1.4c0.2-0.2,0.4-0.3,0.6-0.3c0.3,0,0.5,0.2,0.6,0.3
	c0,0,0,0,0,0c0.2,0.2,0.5,0.5,0.7,0.7c0.1,0.1,0.3,0.3,0.4,0.4l1.1,1.1c0.4,0.4,0.4,0.8,0,1.3c-0.1,0.1-0.2,0.2-0.3,0.3
	c-0.3,0.3-0.7,0.7-1,1c0,0,0,0,0,0c-0.3,0.3-0.3,0.7-0.2,0.9c0,0,0,0,0,0c0.3,0.7,0.7,1.3,1.3,2.1l0,0c1.1,1.4,2.3,2.4,3.6,3.3
	c0.2,0.1,0.3,0.2,0.5,0.3c0.1,0.1,0.3,0.1,0.4,0.2c0,0,0,0,0,0c0.1,0.1,0.3,0.1,0.4,0.1c0.3,0,0.5-0.2,0.6-0.3l1.4-1.4
	c0.1-0.1,0.4-0.3,0.6-0.3c0.3,0,0.5,0.2,0.6,0.3c0,0,0,0,0,0l2.2,2.2C332,42.1,332,42.5,331.6,43z"/>
<g>
	<g>
		<path class="st14" d="M356.6,29h-17.2c-0.2,0-0.4,0.2-0.4,0.4v13.1c0,0.2,0.2,0.4,0.4,0.4h17.2c0.2,0,0.4-0.2,0.4-0.4V29.4
			C357,29.2,356.8,29,356.6,29z M355.4,29.9l-7.4,7.9l-7.4-7.9H355.4z M339.8,30.2l5.1,5.4l-5.1,5.4V30.2z M340,42.1l5.5-5.9
			l2.2,2.4c0.2,0.2,0.4,0.2,0.6,0l2.2-2.4l5.5,5.9H340z M356.2,41.1l-5.1-5.4l5.1-5.4V41.1z"/>
	</g>
</g>
<g>
	<rect x="368" y="35" class="st14" width="6" height="1"/>
	<rect x="368" y="37" class="st14" width="8" height="1"/>
	<rect x="368" y="39" class="st14" width="8" height="1"/>
	<path class="st14" d="M378.5,29H366c0,0-2,0-2,2v5.5c0,1.5,2,1.5,2,1.5v5c0,0.2,0,1,1,1h10c0.2,0,1,0,1-1v-5c0,0,2,0,2-2v-5.4
		C380,29.7,379.4,29,378.5,29z M377,43h-10l0-6.5l0-2.5c0-0.2,0-1,1-1h8c0.2,0,1,0,1,1l0,2.5L377,43z M379,36c0,1-1,1-1,0v-4h-12v4
		c0,1-1,1-1,0v-5c0,0,0-1,1-1h12c1,0,1,1,1,1V36z"/>
</g>
<g>
	<path class="st11" d="M228.6,302c-1.4,0-2.6-1.1-2.6-2.6v-13.6c0-0.3,0.3-0.6,0.6-0.6c0.3,0,0.4,0.6,0.4,0.6l0,13.7
		c0,0.6,0.3,1.2,0.9,1.4c1.1,0.4,2.1-0.3,2.1-1.3v-23.4c0-1.2,1-2.1,2.1-2.1h19.7c1.2,0,2.1,1,2.1,2.1v23.3c0,1.4-1.1,2.6-2.6,2.6
		H228.6z M232,275c-0.6,0-1,0.5-1,1v23.5c0,0.4-0.1,0.8-0.3,1.1l-0.2,0.3h21c0.8,0,1.5-0.7,1.5-1.5V276c0-0.6-0.5-1-1-1H232z"/>
	<path class="st10" d="M249.5,289h-15c-0.3,0-0.5-0.2-0.5-0.5l0,0c0-0.3,0.2-0.5,0.5-0.5h15c0.3,0,0.5,0.2,0.5,0.5l0,0
		C250,288.8,249.8,289,249.5,289z"/>
	<path class="st10" d="M249.5,293h-15c-0.3,0-0.5-0.2-0.5-0.5l0,0c0-0.3,0.2-0.5,0.5-0.5h15c0.3,0,0.5,0.2,0.5,0.5l0,0
		C250,292.8,249.8,293,249.5,293z"/>
	<path class="st10" d="M249.5,297h-15c-0.3,0-0.5-0.2-0.5-0.5l0,0c0-0.3,0.2-0.5,0.5-0.5h15c0.3,0,0.5,0.2,0.5,0.5l0,0
		C250,296.8,249.8,297,249.5,297z"/>
	<path class="st16" d="M248.8,279h-13.6c-0.7,0-1.2,0.5-1.2,1.2v3.6c0,0.7,0.5,1.2,1.2,1.2h13.6c0.7,0,1.2-0.5,1.2-1.2v-3.6
		C250,279.5,249.5,279,248.8,279z M247.8,284h-11.6c-0.7,0-1.2-0.5-1.2-1.2v-1.6c0-0.7,0.5-1.2,1.2-1.2h11.6c0.7,0,1.2,0.5,1.2,1.2
		v1.6C249,283.5,248.5,284,247.8,284z"/>
</g>
<g>
	<path class="st14" d="M228.6,334c-1.4,0-2.6-1.1-2.6-2.6v-13.6c0-0.3,0.3-0.6,0.6-0.6c0.3,0,0.4,0.6,0.4,0.6l0,13.7
		c0,0.6,0.3,1.2,0.9,1.4c1.1,0.4,2.1-0.3,2.1-1.3v-23.4c0-1.2,1-2.1,2.1-2.1h19.7c1.2,0,2.1,1,2.1,2.1v23.3c0,1.4-1.1,2.6-2.6,2.6
		H228.6z M232,307c-0.6,0-1,0.5-1,1v23.5c0,0.4-0.1,0.8-0.3,1.1l-0.2,0.3h21c0.8,0,1.5-0.7,1.5-1.5V308c0-0.6-0.5-1-1-1H232z"/>
	<path class="st26" d="M249.5,321h-15c-0.3,0-0.5-0.2-0.5-0.5l0,0c0-0.3,0.2-0.5,0.5-0.5h15c0.3,0,0.5,0.2,0.5,0.5l0,0
		C250,320.8,249.8,321,249.5,321z"/>
	<path class="st26" d="M249.5,325h-15c-0.3,0-0.5-0.2-0.5-0.5l0,0c0-0.3,0.2-0.5,0.5-0.5h15c0.3,0,0.5,0.2,0.5,0.5l0,0
		C250,324.8,249.8,325,249.5,325z"/>
	<path class="st26" d="M249.5,329h-15c-0.3,0-0.5-0.2-0.5-0.5l0,0c0-0.3,0.2-0.5,0.5-0.5h15c0.3,0,0.5,0.2,0.5,0.5l0,0
		C250,328.8,249.8,329,249.5,329z"/>
	<path class="st16" d="M248.8,311h-13.6c-0.7,0-1.2,0.5-1.2,1.2v3.6c0,0.7,0.5,1.2,1.2,1.2h13.6c0.7,0,1.2-0.5,1.2-1.2v-3.6
		C250,311.5,249.5,311,248.8,311z M247.8,316h-11.6c-0.7,0-1.2-0.5-1.2-1.2v-1.6c0-0.7,0.5-1.2,1.2-1.2h11.6c0.7,0,1.2,0.5,1.2,1.2
		v1.6C249,315.5,248.5,316,247.8,316z"/>
</g>
<g>
	<g>
		<path class="st11" d="M208.3,288.6l-8.3,7.1c-0.3,0.3-0.6,0.4-1,0.4c-0.4,0-0.7-0.1-1-0.4c-0.3-0.3-0.4-0.6-0.4-1
			c0-0.4,0.1-0.7,0.4-1l7.2-8.2l-0.8-0.8l-7.2,8.3c-0.7,0.7-0.9,1.9-0.4,2.8l0.1,0.2l-0.1,0.2c-0.5,0.7-0.8,1.6-0.8,2.5
			c0,1.2,0.5,2.2,1.3,3.1c0.1,0.1,0.2,0.2,0.4,0.2c0.1,0,0.3-0.1,0.4-0.2c0.1-0.1,0.2-0.2,0.2-0.4s-0.1-0.3-0.2-0.4
			c-1.1-1-1.3-2.7-0.5-3.9l0.2-0.3l0.3,0.1c0.3,0.1,0.6,0.2,1,0.2c0.6,0,1.3-0.2,1.7-0.7l8.3-7.1l-3.5-3.5L208.3,288.6z"/>
		<path class="st11" d="M218.4,275.5c-1-1-2.4-1.5-3.8-1.5c-1.4,0-2.8,0.6-3.8,1.5c-0.4,0.4-0.8,0.9-1,1.5l-0.3,0.5l6.8,6.8l0.5-0.3
			c0.5-0.3,1-0.6,1.5-1c1-1,1.6-2.3,1.6-3.7C220,277.9,219.4,276.5,218.4,275.5z M217.7,282.3c-0.5,0.5-1.2,0.9-1.9,1.1l-0.2,0.1
			l-5.1-5l0.1-0.2c0.2-0.7,0.6-1.4,1.1-1.9c0.8-0.8,1.9-1.2,3-1.2c1.1,0,2.2,0.4,3,1.2c0.8,0.8,1.2,1.9,1.2,3
			C218.9,280.4,218.5,281.5,217.7,282.3z"/>
	</g>
	<path class="st16" d="M217.1,285l-0.7-0.7l-7.5-7.4c-0.1-0.1-0.2-0.2-0.4-0.2c-0.1,0-0.3,0.1-0.4,0.2l-5.4,5.4
		c-0.1,0.1-0.2,0.2-0.2,0.4c0,0.1,0.1,0.3,0.2,0.4l1.8,1.8l4.6,4.6l1.8,1.8c0.1,0.1,0.2,0.2,0.4,0.2c0.1,0,0.3-0.1,0.4-0.2l5.4-5.4
		c0.1-0.1,0.2-0.2,0.2-0.4C217.2,285.2,217.2,285.1,217.1,285z M211.3,290l-7.4-7.3l4.7-4.6l7.4,7.3L211.3,290z"/>
	<path class="st10" d="M211.3,285.9c-0.1,0-0.3-0.1-0.4-0.2l-2.7-2.7c-0.1-0.1-0.2-0.2-0.2-0.4c0-0.1,0.1-0.3,0.2-0.4
		c0.1-0.1,0.2-0.2,0.4-0.2s0.3,0.1,0.4,0.2l2.7,2.7c0.1,0.1,0.2,0.2,0.2,0.4c0,0.1-0.1,0.3-0.2,0.4
		C211.5,285.8,211.4,285.9,211.3,285.9z"/>
	<path class="st10" d="M219.5,302h-22c-0.3,0-0.5-0.2-0.5-0.5l0,0c0-0.3,0.2-0.5,0.5-0.5h22c0.3,0,0.5,0.2,0.5,0.5l0,0
		C220,301.8,219.8,302,219.5,302z"/>
</g>
<g>
	<g>
		<path class="st14" d="M208.3,320.6l-8.3,7.1c-0.3,0.3-0.6,0.4-1,0.4c-0.4,0-0.7-0.1-1-0.4c-0.3-0.3-0.4-0.6-0.4-1
			c0-0.4,0.1-0.7,0.4-1l7.2-8.2l-0.8-0.8l-7.2,8.3c-0.7,0.7-0.9,1.9-0.4,2.8l0.1,0.2l-0.1,0.2c-0.5,0.7-0.8,1.6-0.8,2.5
			c0,1.2,0.5,2.2,1.3,3.1c0.1,0.1,0.2,0.2,0.4,0.2c0.1,0,0.3-0.1,0.4-0.2c0.1-0.1,0.2-0.2,0.2-0.4s-0.1-0.3-0.2-0.4
			c-1.1-1-1.3-2.7-0.5-3.9l0.2-0.3l0.3,0.1c0.3,0.1,0.6,0.2,1,0.2c0.6,0,1.3-0.2,1.7-0.7l8.3-7.1l-3.5-3.5L208.3,320.6z"/>
		<path class="st14" d="M218.4,307.5c-1-1-2.4-1.5-3.8-1.5c-1.4,0-2.8,0.6-3.8,1.5c-0.4,0.4-0.8,0.9-1,1.5l-0.3,0.5l6.8,6.8l0.5-0.3
			c0.5-0.3,1-0.6,1.5-1c1-1,1.6-2.3,1.6-3.7C220,309.9,219.4,308.5,218.4,307.5z M217.7,314.3c-0.5,0.5-1.2,0.9-1.9,1.1l-0.2,0.1
			l-5.1-5l0.1-0.2c0.2-0.7,0.6-1.4,1.1-1.9c0.8-0.8,1.9-1.2,3-1.2c1.1,0,2.2,0.4,3,1.2c0.8,0.8,1.2,1.9,1.2,3
			C218.9,312.4,218.5,313.5,217.7,314.3z"/>
	</g>
	<path class="st16" d="M217.1,317l-0.7-0.7l-7.5-7.4c-0.1-0.1-0.2-0.2-0.4-0.2c-0.1,0-0.3,0.1-0.4,0.2l-5.4,5.4
		c-0.1,0.1-0.2,0.2-0.2,0.4c0,0.1,0.1,0.3,0.2,0.4l1.8,1.8l4.6,4.6l1.8,1.8c0.1,0.1,0.2,0.2,0.4,0.2c0.1,0,0.3-0.1,0.4-0.2l5.4-5.4
		c0.1-0.1,0.2-0.2,0.2-0.4C217.2,317.2,217.2,317.1,217.1,317z M211.3,322l-7.4-7.3l4.7-4.6l7.4,7.3L211.3,322z"/>
	<path class="st26" d="M211.3,317.9c-0.1,0-0.3-0.1-0.4-0.2l-2.7-2.7c-0.1-0.1-0.2-0.2-0.2-0.4c0-0.1,0.1-0.3,0.2-0.4
		c0.1-0.1,0.2-0.2,0.4-0.2s0.3,0.1,0.4,0.2l2.7,2.7c0.1,0.1,0.2,0.2,0.2,0.4c0,0.1-0.1,0.3-0.2,0.4
		C211.5,317.8,211.4,317.9,211.3,317.9z"/>
	<path class="st26" d="M219.5,334h-22c-0.3,0-0.5-0.2-0.5-0.5l0,0c0-0.3,0.2-0.5,0.5-0.5h22c0.3,0,0.5,0.2,0.5,0.5l0,0
		C220,333.8,219.8,334,219.5,334z"/>
</g>
<g>
	<g>
		<path class="st28" d="M284.7,298.5h-25.4c-0.4,0-0.8-0.4-0.8-0.8v-15.4c0-0.4,0.4-0.8,0.8-0.8h25.4c0.4,0,0.8,0.4,0.8,0.8v15.4
			C285.5,298.1,285.1,298.5,284.7,298.5z"/>
		<path class="st18" d="M277.5,281.5h-11v-3c0.3-0.4,0.6-0.7,1-1h8.9c0.4,0.2,0.8,0.5,1,1V281.5z"/>
	</g>
	<g>
		<path class="st16" d="M277,290.7l-0.7-0.7l-4.3,4.3V284c0-0.3-0.2-0.5-0.5-0.5s-0.5,0.2-0.5,0.5v10.3l-4.3-4.3l-0.7,0.7l5.5,5.3
			L277,290.7z"/>
	</g>
</g>
<g>
	<g>
		<path class="st29" d="M284.7,330.5h-25.4c-0.4,0-0.8-0.4-0.8-0.8v-15.4c0-0.4,0.4-0.8,0.8-0.8h25.4c0.4,0,0.8,0.4,0.8,0.8v15.4
			C285.5,330.1,285.1,330.5,284.7,330.5z"/>
		<path class="st30" d="M277.5,313.5h-11v-3c0.3-0.4,0.6-0.7,1-1h8.9c0.4,0.2,0.8,0.5,1,1V313.5z"/>
	</g>
	<g>
		<path class="st16" d="M277,322.7l-0.7-0.7l-4.3,4.3V316c0-0.3-0.2-0.5-0.5-0.5s-0.5,0.2-0.5,0.5v10.3l-4.3-4.3l-0.7,0.7l5.5,5.3
			L277,322.7z"/>
	</g>
</g>
<polygon class="st3" points="173,295 173,281 182,288 "/>
<circle class="st5" cx="176" cy="288" r="14.5"/>
<polygon class="st11" points="113.4,187 112,188.4 124.5,200.5 113,212.6 114.4,214 126.9,200.5 "/>
<polygon class="st11" points="173.5,214 174.9,212.6 162.4,200.5 173.9,188.4 172.5,187 160,200.5 "/>
<polygon class="st10" points="113.4,235 112,236.4 124.5,248.5 113,260.6 114.4,262 126.9,248.5 "/>
<polygon class="st10" points="173.5,262 174.9,260.6 162.4,248.5 173.9,236.4 172.5,235 160,248.5 "/>
<g>
	<line class="st6" x1="746" y1="67" x2="746" y2="85"/>
	<circle class="st6" cx="741.3" cy="84.6" r="4.4"/>
	<line class="st6" x1="731.1" y1="76.8" x2="746.1" y2="71.8"/>
	<line class="st6" x1="731.1" y1="70.8" x2="746.1" y2="66.8"/>
	<line class="st6" x1="731" y1="89" x2="731" y2="71"/>
	<circle class="st6" cx="726.3" cy="88.8" r="4.4"/>
</g>
</svg>
